<?xml version="1.0" standalone="no"?>
<!DOCTYPE svg PUBLIC "-//W3C//DTD SVG 20010904//EN"
 "http://www.w3.org/TR/2001/REC-SVG-20010904/DTD/svg10.dtd">
<svg version="1.0" xmlns="http://www.w3.org/2000/svg"
 width="1024.000000pt" height="1024.000000pt" viewBox="0 0 1024.000000 1024.000000"
 preserveAspectRatio="xMidYMid meet">

<g transform="translate(0.000000,1024.000000) scale(0.100000,-0.100000)"
fill="#000000" stroke="none">
<path d="M4875 8964 c-645 -49 -1087 -195 -1600 -529 -462 -301 -856 -718
-1137 -1203 -26 -46 -48 -88 -48 -94 0 -5 -13 -33 -28 -61 -89 -164 -211 -527
-248 -737 -8 -47 -21 -116 -29 -155 -8 -38 -17 -86 -20 -105 -3 -19 -7 -46
-10 -60 -5 -28 -17 -177 -19 -230 -3 -116 17 -516 28 -563 9 -39 10 -54 2 -50
-6 4 -6 1 1 -8 7 -9 11 -25 8 -37 -2 -12 0 -22 5 -22 4 0 6 -10 2 -22 -3 -14
-2 -19 6 -14 7 4 12 0 13 -11 0 -10 2 -25 4 -33 8 -32 28 -136 29 -150 1 -9 6
-21 10 -28 4 -7 5 -16 2 -19 -3 -3 2 -19 11 -37 9 -17 24 -65 34 -107 11 -42
26 -90 34 -105 8 -16 15 -34 15 -41 0 -7 6 -27 14 -45 31 -71 57 -146 59 -166
1 -12 5 -22 9 -22 4 0 8 -9 8 -19 0 -11 5 -23 11 -26 6 -4 8 -14 5 -22 -4 -9
-2 -11 6 -7 7 5 9 2 5 -9 -3 -8 1 -21 9 -28 8 -6 12 -14 10 -17 -3 -2 1 -11 9
-19 8 -8 15 -23 15 -33 0 -10 7 -20 15 -24 8 -3 15 -14 15 -25 0 -11 3 -21 8
-23 14 -6 53 -88 41 -88 -6 0 -2 -8 10 -17 11 -10 31 -36 43 -59 48 -86 96
-161 122 -190 49 -52 53 -59 65 -96 7 -21 17 -40 22 -43 5 -4 9 -12 9 -18 0
-7 -16 6 -36 28 -32 36 -31 34 7 -17 23 -32 44 -58 46 -58 3 0 0 7 -7 15 -9
10 -9 15 -1 15 10 0 15 -12 12 -36 -1 -6 11 -21 26 -35 20 -17 23 -18 10 -3
-31 37 -18 38 17 1 18 -20 36 -34 38 -32 2 2 5 -5 5 -17 2 -20 1 -20 -25 3
l-27 24 24 -27 c17 -19 28 -25 36 -18 8 7 11 3 10 -13 -3 -23 71 -110 86 -101
4 2 10 -5 14 -15 4 -13 12 -18 23 -15 14 5 15 4 2 -5 -13 -9 -6 -19 40 -66 30
-30 58 -55 63 -55 5 0 4 7 -3 15 -11 13 -10 14 4 9 10 -4 15 -13 12 -20 -5
-13 10 -28 29 -29 6 -1 9 -6 8 -12 -1 -6 25 -34 57 -63 33 -28 60 -49 60 -47
0 2 15 -10 34 -27 129 -122 571 -387 817 -490 192 -80 485 -166 689 -201 266
-46 290 -48 985 -52 765 -5 1173 5 1220 29 45 24 66 52 82 110 15 58 30 390
16 372 -4 -7 -8 50 -8 125 -1 120 -3 141 -22 177 -25 48 -68 72 -140 79 -38 3
-42 3 -18 -4 l30 -9 -32 -1 c-18 0 -33 -6 -33 -11 0 -6 -10 -8 -24 -4 -13 3
-273 7 -577 8 -661 4 -753 9 -299 16 318 5 307 6 -210 8 -300 1 -588 7 -640
12 -450 47 -932 253 -1275 545 -138 117 -328 309 -418 423 -345 433 -527 964
-527 1537 1 350 53 614 191 963 175 441 543 871 966 1128 307 187 632 304 970
350 254 34 605 19 848 -38 50 -12 106 -21 125 -20 25 1 31 -2 20 -9 -11 -7 -8
-8 11 -4 17 4 32 1 42 -9 9 -9 18 -12 22 -7 3 6 13 7 21 4 13 -5 13 -8 2 -15
-9 -7 -7 -8 7 -3 33 12 70 5 108 -20 14 -9 37 -17 52 -19 15 -2 31 -9 35 -16
4 -7 15 -10 24 -7 8 3 18 2 21 -3 3 -5 28 -21 55 -36 27 -15 47 -31 43 -37 -4
-6 -1 -7 7 -2 8 5 18 2 26 -9 8 -11 14 -13 19 -7 3 6 11 11 17 11 6 0 5 -6 -2
-16 -8 -8 -9 -14 -4 -13 20 4 35 -2 29 -11 -3 -6 1 -7 10 -4 14 6 14 8 -2 21
-10 8 -2 6 17 -6 19 -11 36 -29 38 -41 3 -17 6 -19 18 -9 12 10 17 9 27 -1 10
-10 9 -11 -3 -5 -13 8 -13 7 -1 -8 15 -19 36 -24 25 -6 -3 6 8 3 25 -6 18 -9
29 -20 26 -25 -3 -6 0 -8 7 -5 7 3 24 -5 38 -18 14 -13 61 -49 105 -82 89 -65
362 -334 385 -380 8 -17 21 -34 27 -38 7 -4 13 -17 13 -27 0 -11 7 -20 15 -20
8 0 15 -5 15 -12 0 -7 17 -37 39 -68 118 -169 275 -534 331 -765 49 -205 81
-416 72 -474 -3 -21 -1 -31 5 -28 14 9 18 -363 15 -1193 -2 -444 -7 -699 -13
-707 -15 -18 16 -70 54 -90 27 -14 78 -18 302 -26 403 -13 450 -6 480 66 36
87 55 552 58 1401 1 437 -2 636 -11 731 -41 405 -170 852 -348 1206 -164 329
-381 628 -616 854 -83 80 -83 80 -17 10 37 -38 79 -85 95 -104 16 -19 42 -46
57 -61 21 -19 24 -27 13 -27 -9 0 -16 3 -16 6 0 10 -211 223 -300 302 -98 87
-197 166 -293 234 -37 26 -66 50 -63 52 3 3 20 -5 38 -18 18 -13 28 -17 21 -9
-15 19 -78 57 -69 41 4 -6 4 -11 1 -11 -6 0 -173 101 -215 130 -33 22 57 -25
119 -62 82 -50 93 -55 61 -29 -39 32 -227 136 -346 192 -434 204 -867 299
-1429 313 -93 2 -192 2 -220 0z m615 -133 l75 -9 -97 2 c-54 0 -98 4 -98 9 0
4 -3 6 -7 6 -18 -3 -33 2 -33 10 0 4 19 5 43 0 23 -5 76 -12 117 -18z m-465
-1 c4 -6 -34 -10 -106 -10 -217 0 -636 -80 -889 -169 -211 -74 -330 -120 -390
-151 -106 -53 -200 -112 -195 -120 3 -5 0 -12 -6 -16 -8 -4 -9 -3 -5 4 11 18
-1 15 -50 -14 -43 -25 -63 -45 -25 -24 27 14 28 14 39 -19 8 -23 7 -31 -4 -35
-8 -3 -12 -2 -9 3 3 5 1 12 -5 16 -5 3 -10 -1 -10 -9 0 -9 -5 -16 -11 -16 -5
0 -7 -4 -4 -10 3 -5 -1 -10 -9 -10 -9 0 -16 7 -16 15 0 8 -4 15 -10 15 -5 0
-6 8 -3 18 6 15 5 16 -14 2 -11 -8 -48 -34 -81 -57 -143 -101 -416 -352 -550
-506 -256 -297 -358 -451 -545 -822 -35 -71 -81 -153 -100 -182 -19 -29 -47
-89 -62 -133 -15 -45 -29 -79 -32 -77 -15 16 86 329 161 496 270 604 704 1088
1287 1434 176 105 486 236 711 301 165 47 477 79 810 84 69 1 119 -2 123 -8z
m-1600 -490 c3 -5 2 -10 -4 -10 -5 0 -13 5 -16 10 -3 6 -2 10 4 10 5 0 13 -4
16 -10z m-30 -119 c-3 -6 -11 -11 -17 -11 -6 0 -6 6 2 15 14 17 26 13 15 -4z
m3698 -967 c82 -101 168 -236 182 -284 4 -14 -15 11 -42 55 -73 121 -277 388
-313 410 -6 3 -10 12 -10 18 1 15 78 -69 183 -199z m245 -429 c-3 -3 -9 2 -12
12 -6 14 -5 15 5 6 7 -7 10 -15 7 -18z m63 -122 c142 -313 237 -759 239 -1117
0 -101 -9 -35 -19 139 -15 262 -66 502 -170 808 -28 81 -64 174 -81 207 -16
33 -30 63 -30 67 0 15 31 -38 61 -104z m-5466 -793 c3 -5 1 -10 -4 -10 -6 0
-11 5 -11 10 0 6 2 10 4 10 3 0 8 -4 11 -10z m-34 -630 c44 -414 115 -665 300
-1055 150 -317 317 -578 500 -780 80 -87 88 -106 14 -31 -157 161 -273 323
-405 565 -226 416 -359 778 -405 1107 -25 177 -45 402 -44 483 l2 76 9 -85 c4
-47 18 -173 29 -280z m5742 -810 c-4 -309 -10 -475 -15 -459 -16 42 2 963 18
946 2 -1 1 -221 -3 -487z m-5679 264 c3 -9 6 -25 6 -37 0 -27 -15 -11 -24 26
-7 29 8 38 18 11z m23 -176 c-3 -8 -6 -5 -6 6 -1 11 2 17 5 13 3 -3 4 -12 1
-19z m63 -106 c0 -15 -2 -15 -10 -2 -13 20 -13 33 0 25 6 -3 10 -14 10 -23z
m24 -59 c9 -18 12 -33 7 -33 -5 0 -14 14 -20 31 -19 54 -14 54 13 2z m51 -115
c20 -38 33 -68 30 -68 -4 0 1 -7 9 -16 9 -8 16 -21 16 -27 0 -13 -54 47 -74
83 -14 26 -34 109 -23 100 3 -3 22 -35 42 -72z m75 -149 c0 -5 -4 -9 -10 -9
-5 0 -10 7 -10 16 0 8 5 12 10 9 6 -3 10 -10 10 -16z m5480 -189 c6 -11 16
-20 22 -20 11 0 37 -29 38 -42 1 -25 -75 33 -83 63 -7 25 9 24 23 -1z m-5303
-176 c-4 -4 -14 1 -22 12 -22 29 -18 41 7 17 12 -13 19 -26 15 -29z m244 -417
c15 -11 44 -57 36 -57 -2 0 -18 16 -37 35 -33 34 -32 47 1 22z m353 -171 c66
-59 184 -155 263 -213 78 -59 141 -108 139 -111 -5 -5 -26 10 -166 112 -124
91 -258 206 -345 298 -77 80 -66 72 109 -86z m1739 -113 c-7 -2 -19 -2 -25 0
-7 3 -2 5 12 5 14 0 19 -2 13 -5z m115 -10 c-10 -2 -28 -2 -40 0 -13 2 -5 4
17 4 22 1 32 -1 23 -4z m1347 -3 c-4 -7 -227 -9 -643 -8 l-637 3 635 5 c349 3
639 6 643 8 5 1 5 -2 2 -8z m48 3 c-7 -2 -19 -2 -25 0 -7 3 -2 5 12 5 14 0 19
-2 13 -5z m60 0 c-7 -2 -21 -2 -30 0 -10 3 -4 5 12 5 17 0 24 -2 18 -5z m105
0 c-15 -2 -42 -2 -60 0 -18 2 -6 4 27 4 33 0 48 -2 33 -4z m59 1 c-3 -3 -12
-4 -19 -1 -8 3 -5 6 6 6 11 1 17 -2 13 -5z m106 -11 c-7 -2 -19 -2 -25 0 -7 3
-2 5 12 5 14 0 19 -2 13 -5z m-83 -93 c0 -5 -4 -10 -10 -10 -5 0 -10 5 -10 10
0 6 5 10 10 10 6 0 10 -4 10 -10z m-1010 -9 c17 -5 -9 -10 -76 -14 -56 -4
-114 -9 -130 -12 -20 -4 -37 1 -54 15 l-25 20 130 -1 c72 -1 141 -4 155 -8z
m923 0 c4 -1 2 -7 -4 -14 -9 -10 -23 -10 -56 -2 -36 8 -40 11 -22 15 19 5 42
5 82 1z m-416 -7 c-3 -3 -12 -4 -19 -1 -8 3 -5 6 6 6 11 1 17 -2 13 -5z m-957
-60 c0 -8 -4 -12 -10 -9 -5 3 -10 10 -10 16 0 5 5 9 10 9 6 0 10 -7 10 -16z
m-1580 -50 c0 -2 -9 0 -20 6 -11 6 -20 13 -20 16 0 2 9 0 20 -6 11 -6 20 -13
20 -16z m120 -55 c22 -12 40 -28 40 -36 0 -8 -6 -13 -12 -10 -7 2 -12 10 -10
17 2 8 -3 10 -13 6 -9 -3 -13 -2 -10 4 3 6 0 10 -7 10 -16 1 -56 30 -40 30 6
0 30 -9 52 -21z m420 -189 c8 -5 11 -10 5 -10 -5 0 -17 5 -25 10 -8 5 -10 10
-5 10 6 0 17 -5 25 -10z"/>
<path d="M7020 8356 c0 -2 8 -10 18 -17 15 -13 16 -12 3 4 -13 16 -21 21 -21
13z"/>
<path d="M7060 8326 c0 -2 8 -10 18 -17 15 -13 16 -12 3 4 -13 16 -21 21 -21
13z"/>
<path d="M7150 8256 c0 -2 8 -10 18 -17 15 -13 16 -12 3 4 -13 16 -21 21 -21
13z"/>
<path d="M7215 8200 c10 -11 20 -20 23 -20 3 0 -3 9 -13 20 -10 11 -20 20 -23
20 -3 0 3 -9 13 -20z"/>
<path d="M7260 8167 c0 -2 15 -16 33 -33 l32 -29 -29 33 c-28 30 -36 37 -36
29z"/>
<path d="M4990 7424 c-14 -2 -60 -6 -103 -9 -42 -4 -75 -11 -72 -15 3 -5 -12
-6 -32 -4 -30 5 -35 3 -23 -6 12 -9 8 -11 -18 -6 -18 3 -31 2 -28 -3 3 -5 -10
-12 -30 -16 -170 -31 -481 -177 -649 -303 -269 -202 -410 -375 -593 -722 -85
-162 -106 -214 -137 -339 -44 -177 -58 -351 -43 -536 6 -71 12 -159 13 -195 2
-36 3 -73 4 -82 1 -10 7 -18 14 -18 7 0 17 -20 23 -45 12 -52 8 -59 -8 -14 -6
16 -12 28 -14 26 -7 -7 19 -72 34 -83 13 -9 18 -35 22 -104 0 -13 1 -13 11 0
9 12 10 11 6 -8 -3 -12 -2 -20 2 -18 4 3 24 -29 44 -70 39 -79 43 -89 27 -79
-6 3 -7 -1 -3 -10 4 -12 8 -13 13 -5 4 7 18 -7 35 -37 48 -82 152 -223 189
-258 6 -5 20 -23 30 -40 l19 -30 -34 29 c-19 17 0 -4 42 -46 43 -42 86 -79 98
-83 12 -3 21 -11 21 -16 0 -6 -5 -7 -12 -3 -6 4 -8 3 -4 -4 3 -6 15 -9 26 -7
11 2 25 -6 35 -21 15 -24 15 -24 -4 -12 -11 6 -17 16 -14 22 4 5 1 6 -7 1 -14
-9 -3 -18 137 -125 112 -85 208 -147 290 -189 72 -36 85 -39 52 -11 -18 14 -6
12 53 -12 82 -34 100 -49 28 -23 -24 8 -45 13 -47 11 -6 -6 159 -63 246 -85
203 -51 233 -52 1186 -49 l890 3 37 23 c25 16 46 42 65 80 24 49 28 68 27 137
-9 461 -6 859 5 830 16 -41 21 55 21 439 0 513 -13 648 -80 871 -45 148 -162
401 -180 390 -11 -7 -32 30 -22 40 4 3 -2 13 -13 21 -11 8 -20 18 -20 22 0 4
-3 6 -6 5 -4 -1 -6 5 -5 15 0 9 -4 16 -11 15 -6 -1 -14 4 -17 13 -4 10 -2 13
7 8 6 -4 -9 12 -35 35 -45 40 -69 80 -30 50 14 -11 13 -10 -2 9 -21 24 -31 29
-20 10 4 -7 -2 -4 -14 6 -12 11 -22 24 -21 30 0 6 3 6 6 -1 2 -7 10 -13 16
-13 6 0 -28 40 -77 89 -49 49 -94 87 -101 85 -6 -3 -20 6 -31 18 l-19 23 25
-20 25 -20 -24 28 c-24 27 -38 36 -26 17 15 -24 -16 -7 -42 23 -15 19 -46 47
-67 63 -34 25 -37 26 -25 6 8 -12 16 -22 20 -22 3 0 6 -7 6 -17 0 -13 -4 -12
-18 6 -10 12 -21 21 -24 20 -13 -4 -85 43 -80 51 7 12 -26 29 -44 22 -8 -3
-11 0 -7 6 6 11 -25 34 -41 31 -4 -1 -14 -1 -22 0 -11 1 -11 4 0 18 12 15 12
15 -4 6 -14 -7 -38 -1 -103 26 -46 20 -80 37 -74 39 6 2 40 -10 76 -27 73 -34
74 -35 74 -22 0 14 -198 87 -315 117 -60 15 -140 28 -176 28 -37 1 -62 5 -55
9 6 4 -19 7 -56 6 -38 -1 -71 1 -75 4 -6 7 -92 7 -143 1z m347 -30 c-3 -3 -12
-4 -19 -1 -8 3 -5 6 6 6 11 1 17 -2 13 -5z m140 -30 c-3 -3 -12 -4 -19 -1 -8
3 -5 6 6 6 11 1 17 -2 13 -5z m-274 -28 c4 -10 1 -13 -8 -9 -8 3 -12 9 -9 14
7 12 11 11 17 -5z m47 -16 c-6 -11 -15 -20 -20 -20 -6 0 -5 9 2 20 7 11 16 20
21 20 4 0 3 -9 -3 -20z m90 -15 c-7 -8 -17 -15 -22 -15 -6 0 -5 7 2 15 7 8 17
15 22 15 6 0 5 -7 -2 -15z m-390 -15 c-19 -5 -73 -13 -120 -20 -92 -12 -333
-88 -445 -140 -211 -99 -447 -281 -602 -466 -113 -134 -194 -263 -150 -238 9
5 9 4 0 -6 -18 -19 4 -45 24 -29 7 7 16 9 19 6 3 -3 -4 -11 -17 -17 -19 -11
-24 -10 -35 5 -8 10 -11 22 -8 26 13 22 -7 6 -22 -17 -15 -22 -15 -27 -3 -35
12 -8 12 -10 -1 -18 -8 -5 -17 -8 -21 -5 -8 5 -62 -87 -126 -216 -23 -47 -42
-77 -43 -68 0 30 60 208 106 311 23 53 38 97 32 97 -6 0 -8 3 -4 8 4 4 13 7
18 7 6 0 13 7 15 15 4 12 3 12 -5 1 -7 -10 -11 -10 -17 -1 -4 6 0 19 9 29 9
10 16 21 16 25 0 7 49 56 56 56 2 0 0 -8 -3 -17 -4 -10 10 3 30 29 21 28 34
54 31 63 -4 8 -1 15 6 15 6 0 8 -5 4 -12 -5 -7 56 53 135 134 154 159 232 217
415 312 110 57 296 126 387 145 75 16 200 28 284 29 57 0 64 -2 35 -8z m137 4
c-3 -3 -12 -4 -19 -1 -8 3 -5 6 6 6 11 1 17 -2 13 -5z m173 -8 c0 -9 -30 -14
-35 -6 -4 6 3 10 14 10 12 0 21 -2 21 -4z m30 -6 c0 -5 -5 -10 -11 -10 -5 0
-7 5 -4 10 3 6 8 10 11 10 2 0 4 -4 4 -10z m1096 -447 c-4 -5 -146 137 -146
145 0 4 34 -27 75 -68 41 -41 73 -75 71 -77z m-95 60 c13 -16 12 -17 -3 -4
-10 7 -18 15 -18 17 0 8 8 3 21 -13z m-1031 -307 c85 -16 189 -53 253 -90 24
-15 47 -23 52 -18 4 4 6 2 2 -3 -3 -6 3 -17 15 -24 11 -7 17 -8 13 -2 -3 6 -1
11 4 11 6 0 11 -4 11 -10 0 -5 4 -10 9 -10 5 0 25 -16 46 -35 21 -19 42 -32
47 -29 5 3 7 2 6 -3 -4 -11 33 -55 57 -69 11 -7 19 -19 17 -27 -1 -8 10 -26
26 -39 51 -41 117 -152 153 -255 10 -30 26 -108 35 -176 14 -105 16 -193 12
-637 -3 -283 -8 -523 -12 -532 -4 -9 -20 -25 -34 -35 -25 -17 -62 -18 -522
-19 -272 0 -459 2 -415 6 l80 6 -60 4 -60 3 45 8 c33 6 22 7 -45 4 -52 -1 -82
1 -70 6 18 7 17 8 -6 8 -53 2 -205 53 -298 101 -158 81 -292 198 -386 337 -23
35 -45 60 -50 55 -5 -4 -5 -2 -1 5 4 7 -6 38 -23 70 -16 32 -34 77 -41 100 -7
23 -16 40 -20 38 -4 -2 -5 7 -2 20 2 15 0 25 -7 25 -7 0 -9 5 -6 10 3 6 2 10
-3 10 -13 0 -25 129 -14 144 5 6 6 20 2 31 -4 11 -3 33 1 50 7 29 31 208 33
252 1 11 5 19 10 15 5 -3 7 4 4 16 -3 12 -1 23 4 24 5 2 11 15 11 30 1 14 6
24 11 20 5 -3 7 2 3 11 -8 21 2 49 14 42 5 -3 12 7 15 22 4 15 13 34 21 41 7
8 11 18 8 23 -4 5 -2 9 3 9 5 0 25 24 44 53 74 109 219 231 360 303 189 96
449 136 648 100z m370 -18 c0 -6 -6 -5 -15 2 -8 7 -15 14 -15 16 0 2 7 1 15
-2 8 -4 15 -11 15 -16z m-1918 -30 c-7 -7 -12 -8 -12 -2 0 14 12 26 19 19 2
-3 -1 -11 -7 -17z m2023 -41 c116 -83 337 -423 335 -515 -1 -9 -17 24 -37 73
-20 50 -46 106 -58 125 -42 66 -156 205 -233 284 -78 80 -79 85 -7 33z m20
-157 c10 -11 16 -20 13 -20 -3 0 -13 9 -23 20 -10 11 -16 20 -13 20 3 0 13 -9
23 -20z m-2137 -51 c-3 -8 -7 -3 -11 10 -4 17 -3 21 5 13 5 -5 8 -16 6 -23z
m-28 1 c0 -5 -4 -10 -10 -10 -5 0 -10 5 -10 10 0 6 5 10 10 10 6 0 10 -4 10
-10z m30 -80 c0 -5 -2 -10 -4 -10 -3 0 -8 5 -11 10 -3 6 -1 10 4 10 6 0 11 -4
11 -10z m2474 -335 c7 -38 12 -72 11 -74 -5 -5 -24 68 -30 119 -7 61 1 40 19
-45z m41 -243 c-8 -9 -15 3 -20 39 l-6 34 16 -34 c8 -19 13 -36 10 -39z m715
-347 c-1 -248 -5 -415 -10 -415 -6 0 -10 160 -10 399 0 358 3 431 16 431 2 0
4 -187 4 -415z m-3479 121 c25 -244 121 -522 241 -699 60 -89 219 -271 326
-375 54 -51 87 -88 75 -82 -35 16 -187 165 -281 274 -115 133 -172 220 -236
363 -101 221 -137 374 -141 593 -1 85 -1 128 1 95 2 -33 9 -109 15 -169z
m2768 127 c1 -7 -3 -13 -9 -13 -5 0 -10 17 -9 38 1 33 2 34 9 12 4 -14 8 -31
9 -37z m-21 -725 l-2 -153 -5 125 c-6 117 -4 180 5 180 2 0 3 -69 2 -152z
m-36 -321 c-36 -42 -174 -77 -199 -52 -7 8 -13 18 -13 24 0 6 -6 11 -12 11
-31 1 58 30 92 30 46 0 95 37 118 90 l16 35 8 -59 c6 -50 5 -63 -10 -79z
m-1255 117 c-3 -3 -12 -4 -19 -1 -8 3 -5 6 6 6 11 1 17 -2 13 -5z m558 -144
c-3 -5 -25 -10 -48 -10 -61 0 -87 -10 -87 -31 0 -10 -4 -20 -10 -24 -5 -3 -8
7 -7 22 2 24 -2 28 -23 29 -48 1 -60 4 -60 14 0 6 47 10 121 10 77 0 118 -4
114 -10z m-1589 -117 c-6 -6 -36 9 -36 18 0 5 9 4 20 -3 10 -7 18 -14 16 -15z
m325 -270 c13 -16 12 -17 -3 -4 -17 13 -22 21 -14 21 2 0 10 -8 17 -17z m2402
-190 c-7 -2 -21 -2 -30 0 -10 3 -4 5 12 5 17 0 24 -2 18 -5z m-1660 -90 c-7
-2 -21 -2 -30 0 -10 3 -4 5 12 5 17 0 24 -2 18 -5z"/>
<path d="M4072 5515 c0 -16 2 -22 5 -12 2 9 2 23 0 30 -3 6 -5 -1 -5 -18z"/>
<path d="M4081 5424 c0 -11 3 -14 6 -6 3 7 2 16 -1 19 -3 4 -6 -2 -5 -13z"/>
<path d="M5783 4613 c9 -2 25 -2 35 0 9 3 1 5 -18 5 -19 0 -27 -2 -17 -5z"/>
<path d="M5133 4593 c9 -2 23 -2 30 0 6 3 -1 5 -18 5 -16 0 -22 -2 -12 -5z"/>
<path d="M5283 4593 c15 -2 37 -2 50 0 12 2 0 4 -28 4 -27 0 -38 -2 -22 -4z"/>
<path d="M5967 7179 c7 -7 15 -10 18 -7 3 3 -2 9 -12 12 -14 6 -15 5 -6 -5z"/>
<path d="M6140 7066 c0 -2 8 -10 18 -17 15 -13 16 -12 3 4 -13 16 -21 21 -21
13z"/>
<path d="M6460 6746 c0 -2 8 -10 18 -17 15 -13 16 -12 3 4 -13 16 -21 21 -21
13z"/>
<path d="M6586 6567 c3 -10 9 -15 12 -12 3 3 0 11 -7 18 -10 9 -11 8 -5 -6z"/>
<path d="M1761 6244 c0 -11 3 -14 6 -6 3 7 2 16 -1 19 -3 4 -6 -2 -5 -13z"/>
<path d="M1741 6124 c0 -11 3 -14 6 -6 3 7 2 16 -1 19 -3 4 -6 -2 -5 -13z"/>
<path d="M1732 6060 c0 -14 2 -19 5 -12 2 6 2 18 0 25 -3 6 -5 1 -5 -13z"/>
<path d="M1722 5975 c0 -16 2 -22 5 -12 2 9 2 23 0 30 -3 6 -5 -1 -5 -18z"/>
<path d="M1713 5860 c0 -36 2 -50 4 -32 2 17 2 47 0 65 -2 17 -4 3 -4 -33z"/>
<path d="M1701 5624 c0 -11 3 -14 6 -6 3 7 2 16 -1 19 -3 4 -6 -2 -5 -13z"/>
<path d="M1713 5470 c0 -25 2 -35 4 -22 2 12 2 32 0 45 -2 12 -4 2 -4 -23z"/>
<path d="M3242 5440 c0 -19 2 -27 5 -17 2 9 2 25 0 35 -3 9 -5 1 -5 -18z"/>
<path d="M1722 5370 c0 -19 2 -27 5 -17 2 9 2 25 0 35 -3 9 -5 1 -5 -18z"/>
<path d="M3261 5274 c0 -11 3 -14 6 -6 3 7 2 16 -1 19 -3 4 -6 -2 -5 -13z"/>
<path d="M1732 5260 c0 -14 2 -19 5 -12 2 6 2 18 0 25 -3 6 -5 1 -5 -13z"/>
<path d="M1742 5185 c0 -16 2 -22 5 -12 2 9 2 23 0 30 -3 6 -5 -1 -5 -18z"/>
<path d="M1754 5135 c-3 -8 -4 -20 -2 -27 3 -7 7 -1 10 15 6 29 1 36 -8 12z"/>
<path d="M3320 5035 c0 -5 5 -17 10 -25 5 -8 10 -10 10 -5 0 6 -5 17 -10 25
-5 8 -10 11 -10 5z"/>
<path d="M3380 4885 c0 -5 5 -17 10 -25 5 -8 10 -10 10 -5 0 6 -5 17 -10 25
-5 8 -10 11 -10 5z"/>
<path d="M3416 4807 c3 -10 9 -15 12 -12 3 3 0 11 -7 18 -10 9 -11 8 -5 -6z"/>
<path d="M6845 4470 c0 -195 1 -275 2 -178 2 98 2 258 0 355 -1 98 -2 18 -2
-177z"/>
<path d="M2175 3920 c9 -16 18 -30 21 -30 2 0 -2 14 -11 30 -9 17 -18 30 -21
30 -2 0 2 -13 11 -30z"/>
<path d="M2279 3755 c5 -11 17 -29 26 -40 l16 -20 -10 20 c-5 11 -17 29 -26
40 l-16 20 10 -20z"/>
<path d="M2320 3686 c0 -2 8 -10 18 -17 15 -13 16 -12 3 4 -13 16 -21 21 -21
13z"/>
<path d="M7703 3453 c9 -2 25 -2 35 0 9 3 1 5 -18 5 -19 0 -27 -2 -17 -5z"/>
<path d="M8113 3454 c-33 -8 -28 -22 10 -27 17 -2 -73 -5 -201 -5 -218 -2
-263 -7 -282 -31 -3 -4 -24 -13 -47 -19 -24 -7 -47 -22 -53 -33 -7 -13 -11
-129 -11 -332 1 -276 -1 -309 -14 -287 -14 25 -14 25 -15 3 0 -48 31 -103 75
-129 61 -35 216 -47 456 -35 210 11 251 20 295 67 55 57 69 141 68 390 -2 368
-30 434 -187 440 -40 1 -82 0 -94 -2z m-363 -136 c0 -4 -5 -8 -11 -8 -6 0 -34
-25 -63 -57 -32 -33 -58 -53 -64 -49 -20 12 -15 103 6 115 9 6 13 11 9 11 -5
0 -6 4 -3 8 6 10 126 -9 126 -20z m100 -2 c0 -2 -7 -6 -15 -10 -8 -3 -15 -1
-15 4 0 6 7 10 15 10 8 0 15 -2 15 -4z m-140 -70 c0 -2 -8 -10 -17 -17 -16
-13 -17 -12 -4 4 13 16 21 21 21 13z m-95 -281 c0 -90 -3 -161 -7 -158 -5 2
-8 79 -8 170 0 92 3 163 8 159 4 -4 7 -81 7 -171z"/>
<path d="M7688 3433 c7 -3 16 -2 19 1 4 3 -2 6 -13 5 -11 0 -14 -3 -6 -6z"/>
<path d="M6188 3093 c7 -3 16 -2 19 1 4 3 -2 6 -13 5 -11 0 -14 -3 -6 -6z"/>
<path d="M7200 2355 c-8 -2 -42 -7 -74 -10 -43 -5 -55 -10 -45 -17 11 -7 8 -9
-9 -5 -12 3 -20 1 -17 -3 3 -5 1 -11 -5 -15 -5 -3 -10 -1 -10 6 0 7 -10 3 -24
-10 -44 -42 -51 -94 -51 -391 0 -273 0 -275 25 -325 39 -77 60 -85 263 -97
119 -7 217 -7 310 -1 226 17 222 10 222 408 0 311 -6 357 -49 400 -44 44 -114
57 -326 60 -107 2 -202 2 -210 0z m-37 -22 c-7 -2 -19 -2 -25 0 -7 3 -2 5 12
5 14 0 19 -2 13 -5z m312 -10 c44 -8 34 -10 -89 -16 -198 -10 -294 -9 -276 3
8 5 30 10 48 10 18 0 31 3 29 8 -7 10 225 6 288 -5z m-53 -40 c-40 -2 -103 -2
-140 0 -37 2 -4 3 73 3 77 0 107 -2 67 -3z m-433 -238 l-5 -160 -2 140 c-1
113 4 200 12 183 1 -2 -1 -75 -5 -163z m196 151 c28 -8 43 -15 34 -15 -9 -1
-35 -19 -59 -41 -24 -23 -51 -39 -60 -38 -22 5 -25 65 -4 89 20 23 24 23 89 5z
m-103 -403 c4 -68 -13 -51 -20 19 -3 36 -1 50 6 43 6 -5 12 -33 14 -62z"/>
<path d="M8217 2326 c-75 -16 -108 -42 -130 -102 -16 -43 -18 -78 -15 -333 3
-275 4 -288 26 -328 43 -81 113 -97 437 -98 259 0 299 6 334 51 34 43 43 144
39 431 -3 248 -5 271 -23 303 -28 47 -73 67 -180 80 -122 13 -416 11 -488 -4z
m318 -14 c-3 -3 -11 0 -18 7 -9 10 -8 11 6 5 10 -3 15 -9 12 -12z m80 8 c7
-12 -2 -12 -30 0 -19 8 -19 9 2 9 12 1 25 -3 28 -9z m-516 -227 c-1 -82 -3
-90 -9 -48 -6 47 -2 145 6 145 2 0 3 -44 3 -97z m206 76 c5 -6 3 -9 -7 -9 -10
0 -29 -16 -44 -35 -34 -44 -67 -45 -72 -2 -5 46 23 70 73 62 22 -4 44 -11 50
-16z m-124 -294 l-9 -60 -1 86 c0 47 2 89 7 93 11 12 13 -53 3 -119z"/>
</g>
</svg>
