<?xml version="1.0" encoding="UTF-8"?>
<svg version="1.1" xmlns="http://www.w3.org/2000/svg" width="585" height="585">
<path d="M0 0 C1.39798828 1.299375 1.39798828 1.299375 2.82421875 2.625 C7.90051321 6.26558846 13.79293072 5.62200109 19.80618286 5.57455444 C23.29524398 5.55422462 26.78159485 5.62786033 30.26953125 5.7109375 C31.28934334 5.73503944 31.28934334 5.73503944 32.32975769 5.7596283 C57.3636132 6.50814381 80.00584442 19.98089574 97.34765625 37.3515625 C115.8114903 57.48745859 125.81118183 83.57208516 125.18359375 110.890625 C123.7452028 135.25145904 115.69552192 157.06980377 100 176 C99.31357422 176.88751953 99.31357422 176.88751953 98.61328125 177.79296875 C83.59221683 196.6015795 59.793939 206.48628302 36.69921875 210.5859375 C8.74622815 213.71478333 -18.80019614 207.7294324 -41 190 C-63.81689867 171.2981725 -77.37524742 147.21725973 -81 118 C-81.07778378 116.02137507 -81.14263553 114.04214495 -81.1875 112.0625 C-81.59424632 106.53407039 -84.2228058 103.77598212 -87.80078125 99.72265625 C-97.92714428 87.1861109 -102.15897026 69.75647309 -100.8203125 53.8671875 C-98.42931505 33.65239087 -89.51181697 16.78003438 -73.48828125 3.99609375 C-52.12857626 -11.52909214 -22.74027588 -15.17389114 0 0 Z M-61 17 C-61 24.26 -61 31.52 -61 39 C-54.07 39 -47.14 39 -40 39 C-40 31.74 -40 24.48 -40 17 C-46.93 17 -53.86 17 -61 17 Z M-16 17 C-16 24.26 -16 31.52 -16 39 C-9.07 39 -2.14 39 5 39 C5 31.74 5 24.48 5 17 C-1.93 17 -8.86 17 -16 17 Z M-38 40 C-38 47.26 -38 54.52 -38 62 C-31.07 62 -24.14 62 -17 62 C-15.77374953 59.54749907 -15.96574645 58.15689565 -16.12109375 55.4296875 C-16.16419678 54.62257324 -16.2072998 53.81545898 -16.25170898 52.98388672 C-16.31302002 51.9579541 -16.37433105 50.93202148 -16.4375 49.875 C-16.623125 46.61625 -16.80875 43.3575 -17 40 C-23.93 40 -30.86 40 -38 40 Z M-62 63 C-62 69.93 -62 76.86 -62 84 C-55.07 84 -48.14 84 -41 84 C-41 77.07 -41 70.14 -41 63 C-47.93 63 -54.86 63 -62 63 Z M-18 70 C-19.05047633 73.1902859 -18.9579356 74.95824695 -17.8125 78.09765625 C-17.52955078 78.88914062 -17.24660156 79.680625 -16.95507812 80.49609375 C-16.63990234 81.34300781 -16.32472656 82.18992187 -16 83.0625 C-15.67966797 83.949375 -15.35933594 84.83625 -15.02929688 85.75 C-14.03107701 88.50438358 -13.0175528 91.25270643 -12 94 C-11.40607606 95.61321722 -10.81231836 97.22649566 -10.21875 98.83984375 C-9.35556484 101.18239021 -8.49095795 103.52437127 -7.62255859 105.86499023 C-5.56133188 111.43075966 -3.57437351 117.01915234 -1.625 122.625 C1.12777929 130.53489479 3.92283784 138.42886806 6.75 146.3125 C7.12688965 147.36840332 7.5037793 148.42430664 7.89208984 149.51220703 C9.77597184 154.75288548 11.73268149 159.91288347 14 165 C14.99 165 15.98 165 17 165 C19.49359585 159.0794512 21.70864602 153.08890406 23.75 147 C23.97260498 146.3412085 24.19520996 145.68241699 24.42456055 145.00366211 C25.60586186 141.57531898 25.60586186 141.57531898 26 138 C29.02794188 138.07209385 31.23186622 138.27017211 33.48828125 140.4140625 C34.48435711 141.63298013 35.4654141 142.8642776 36.43359375 144.10546875 C37.99520008 145.99419461 39.604019 147.45404626 41.5 149 C44.5660846 151.5269928 47.01252199 154.28971499 49.53515625 157.34765625 C51.14903343 159.25141992 51.14903343 159.25141992 54 161.5 C56.9049741 163.92081175 59.10439698 166.41781302 61.5 169.3125 C63.14332242 171.24555317 63.14332242 171.24555317 66 173.5 C68.33618185 175.44681821 70.03430755 177.13044709 71.9375 179.4375 C74.94304826 183.0728581 78.33805636 186.04227629 82 189 C88.55313924 184.49700488 95.15501187 179.34138835 100 173 C99.78053577 168.9005534 97.21165156 166.88578388 94.38842773 164.14306641 C93.91035675 163.6741951 93.43228577 163.20532379 92.93972778 162.72224426 C91.90290278 161.70684783 90.86274729 160.69484348 89.81966972 159.68587112 C88.16897106 158.08740249 86.52918195 156.47846798 84.8921051 154.86605835 C80.23688951 150.28415766 75.56523963 145.71929006 70.88012695 141.16796875 C68.01333597 138.38157045 65.16136505 135.58069668 62.31797981 132.7704277 C61.23233299 131.70339383 60.1410279 130.64208522 59.04403496 129.58671951 C57.50947459 128.10988481 55.99437343 126.61540118 54.48217773 125.11572266 C53.18098244 123.84808578 53.18098244 123.84808578 51.85350037 122.55484009 C49.61183686 119.46496113 49.6097017 117.73426966 50 114 C51.155 113.773125 52.31 113.54625 53.5 113.3125 C58.21500424 112.24709039 62.86169269 110.98128153 67.5 109.625 C68.21865234 109.42817627 68.93730469 109.23135254 69.67773438 109.02856445 C71.96271616 108.38298157 71.96271616 108.38298157 75 107 C76.26682861 105.05781031 76.26682861 105.05781031 76 103 C73.85986943 100.85986943 72.73820752 100.42626272 69.9140625 99.51953125 C69.07601074 99.24625 68.23795898 98.97296875 67.37451172 98.69140625 C66.46717285 98.40136719 65.55983398 98.11132812 64.625 97.8125 C62.70272472 97.18481828 60.78085891 96.55588138 58.859375 95.92578125 C57.88033203 95.60561035 56.90128906 95.28543945 55.89257812 94.95556641 C44.22830374 91.10226037 32.681594 86.90756229 21.16601562 82.63378906 C15.25610922 80.44648398 9.32335772 78.33037268 3.375 76.25 C2.56998047 75.96833984 1.76496094 75.68667969 0.93554688 75.39648438 C-1.3743718 74.59194911 -3.68697778 73.79556178 -6 73 C-6.81823242 72.71318359 -7.63646484 72.42636719 -8.47949219 72.13085938 C-9.27774414 71.85564453 -10.07599609 71.58042969 -10.8984375 71.296875 C-11.61435059 71.04776367 -12.33026367 70.79865234 -13.06787109 70.54199219 C-15.14696615 69.86495491 -15.14696615 69.86495491 -18 70 Z " fill="#9530F5" transform="translate(290,202)"/>
<path d="M0 0 C1.39798828 1.299375 1.39798828 1.299375 2.82421875 2.625 C7.90051321 6.26558846 13.79293072 5.62200109 19.80618286 5.57455444 C23.29524398 5.55422462 26.78159485 5.62786033 30.26953125 5.7109375 C31.28934334 5.73503944 31.28934334 5.73503944 32.32975769 5.7596283 C57.3636132 6.50814381 80.00584442 19.98089574 97.34765625 37.3515625 C102.91005315 43.41768321 107.44491439 50.16737158 112 57 C111.67 57.99 111.34 58.98 111 60 C110.67 59.01 110.34 58.02 110 57 C109.01 56.67 108.02 56.34 107 56 C106.28950541 54.35154022 105.62842417 52.68145927 105 51 C102.85643478 47.84969439 100.41870537 44.94259499 98 42 C97.10667969 40.88431641 97.10667969 40.88431641 96.1953125 39.74609375 C92.82630834 35.68082873 90.04143026 32.96738742 85 31 C85 30.34 85 29.68 85 29 C82.9895816 27.53997242 82.9895816 27.53997242 80.4375 26.125 C79.53128906 25.5990625 78.62507812 25.073125 77.69140625 24.53125 C76.80324219 24.0259375 75.91507813 23.520625 75 23 C74.26652344 22.5771875 73.53304687 22.154375 72.77734375 21.71875 C71.18891013 20.80548221 69.59509811 19.90157719 68 19 C67.67 19.66 67.34 20.32 67 21 C66.319375 20.236875 65.63875 19.47375 64.9375 18.6875 C60.29971894 14.44442371 54.88749057 12.9168574 49 11 C48.34 10.67 47.68 10.34 47 10 C46.67 10.66 46.34 11.32 46 12 C45.0925 11.525625 44.185 11.05125 43.25 10.5625 C40.73572051 9.35371179 38.70431791 8.52006114 36 8 C35.67 8.99 35.34 9.98 35 11 C28.01057082 12.44608879 28.01057082 12.44608879 25.1328125 11.17578125 C23.5 10.0625 23.5 10.0625 21 8 C20.505 9.485 20.505 9.485 20 11 C19.505 10.01 19.505 10.01 19 9 C18.34 9 17.68 9 17 9 C17.12573443 15.49457855 17.12573443 15.49457855 20.5625 20.8125 C21.366875 21.534375 22.17125 22.25625 23 23 C23 24.32 23 25.64 23 27 C23.99 26.67 24.98 26.34 26 26 C30.10360825 45.93181148 30.60293657 64.56439974 24 84 C17.23525955 82.03299253 10.57404927 79.86172461 3.9375 77.5 C0.62705824 76.32739186 -2.68509054 75.15992039 -6 74 C-6.83128418 73.70738281 -7.66256836 73.41476562 -8.51904297 73.11328125 C-9.71424561 72.70142578 -9.71424561 72.70142578 -10.93359375 72.28125 C-11.64443115 72.03439453 -12.35526855 71.78753906 -13.08764648 71.53320312 C-15.15074651 70.86571196 -15.15074651 70.86571196 -18 71 C-17.38760911 75.37386833 -16.32179371 79.27961551 -14.8203125 83.4296875 C-14.16869141 85.24146484 -14.16869141 85.24146484 -13.50390625 87.08984375 C-13.04434701 88.35159025 -12.58471108 89.61330882 -12.125 90.875 C-11.67769531 92.11636719 -11.23039062 93.35773438 -10.76953125 94.63671875 C-8.95704114 99.65715597 -7.13703488 104.6669923 -5.1796875 109.6328125 C-4 113 -4 113 -4 117 C-4.99 117 -5.98 117 -7 117 C-7.495 118.485 -7.495 118.485 -8 120 C-8.99 120.33 -9.98 120.66 -11 121 C-11.66 121.66 -12.32 122.32 -13 123 C-25.56103603 125.69521568 -39.61004215 126.67266212 -52 123 C-52.99386719 122.75507813 -53.98773438 122.51015625 -55.01171875 122.2578125 C-63.40580928 120.0127658 -70.19403258 116.42130508 -77 111 C-77.495 110.01 -77.495 110.01 -78 109 C-78.99 109 -79.98 109 -81 109 C-82.76017454 106.95201724 -84.286936 104.9638337 -85.8125 102.75 C-86.25537354 102.11465332 -86.69824707 101.47930664 -87.15454102 100.82470703 C-98.21644552 84.63665259 -103.18440068 66.83970811 -99.875 47.3125 C-96.31721193 28.6183609 -86.3936209 13.37626998 -71 2.1875 C-49.88188073 -11.79256338 -21.7633821 -14.52203977 0 0 Z M-61 17 C-61 24.26 -61 31.52 -61 39 C-54.07 39 -47.14 39 -40 39 C-40 31.74 -40 24.48 -40 17 C-46.93 17 -53.86 17 -61 17 Z M-16 17 C-16 24.26 -16 31.52 -16 39 C-9.07 39 -2.14 39 5 39 C5 31.74 5 24.48 5 17 C-1.93 17 -8.86 17 -16 17 Z M-38 40 C-38 47.26 -38 54.52 -38 62 C-31.07 62 -24.14 62 -17 62 C-15.77374953 59.54749907 -15.96574645 58.15689565 -16.12109375 55.4296875 C-16.16419678 54.62257324 -16.2072998 53.81545898 -16.25170898 52.98388672 C-16.31302002 51.9579541 -16.37433105 50.93202148 -16.4375 49.875 C-16.623125 46.61625 -16.80875 43.3575 -17 40 C-23.93 40 -30.86 40 -38 40 Z M-62 63 C-62 69.93 -62 76.86 -62 84 C-55.07 84 -48.14 84 -41 84 C-41 77.07 -41 70.14 -41 63 C-47.93 63 -54.86 63 -62 63 Z " fill="#A231DD" transform="translate(290,202)"/>
<path d="M0 0 C3.10240482 1.03413494 3.83000271 1.73136647 6 4 C20.01702225 15.5545724 38.6658116 17.27800849 56.1328125 15.65625 C64.54748117 14.78592408 64.54748117 14.78592408 72 11 C72.33 10.34 72.66 9.68 73 9 C74.32 9 75.64 9 77 9 C80.99026767 18.98813876 84.77825952 29.02819183 88.3125 39.1875 C88.64958984 40.15437744 88.98667969 41.12125488 89.33398438 42.11743164 C91.03531954 47.04571842 92.6293027 51.96947132 94 57 C94.99 57 95.98 57 97 57 C97.14695312 56.47535156 97.29390625 55.95070313 97.4453125 55.41015625 C99.9339739 46.81426257 102.98154094 38.42042625 106 30 C111.52791051 29.6248371 111.52791051 29.6248371 113.6171875 31.28515625 C114.03226562 31.87167969 114.44734375 32.45820313 114.875 33.0625 C117.07067536 35.92091201 119.3010145 38.24140149 122.0625 40.5625 C125.4550563 43.44103262 128.15590834 46.57250493 131 50 C132.73726193 51.54378496 134.52215861 53.01833816 136.3125 54.5 C138.83638489 56.74345324 140.84079531 59.40895437 143 62 C144.7330408 63.54048071 146.5135851 65.0112276 148.30078125 66.48828125 C149.95227887 67.95754465 151.30599101 69.46592726 152.6875 71.1875 C154.68674338 73.61901222 156.50722783 75.15350209 159 77 C159 77.66 159 78.32 159 79 C160.67613451 79.98134932 160.67613451 79.98134932 163 80 C165.20492495 78.33731882 167.05237652 76.73842966 169 74.8125 C169.52078125 74.31685547 170.0415625 73.82121094 170.578125 73.31054688 C171.59647069 72.33720384 172.6059147 71.35444742 173.60546875 70.36181641 C174.83916059 69.15706622 176.13462641 68.01629345 177.4375 66.88671875 C179.19898844 65.18312587 179.19898844 65.18312587 178.94555664 63.24829102 C177.52740203 59.87628332 175.01491273 57.64815773 172.43359375 55.140625 C171.60336449 54.316763 171.60336449 54.316763 170.75636292 53.47625732 C168.99033441 51.72699536 167.21415308 49.98846356 165.4375 48.25 C164.23694559 47.064495 163.0370674 45.87830476 161.83789062 44.69140625 C158.89970905 41.78626707 155.95237926 38.89070663 153 36 C156 36 156 36 158 37 C158.33 36.34 158.66 35.68 159 35 C159.33 36.65 159.66 38.3 160 40 C160.99 40.33 161.98 40.66 163 41 C163.66666667 42.33333333 164.33333333 43.66666667 165 45 C165.99 45.33 166.98 45.66 168 46 C168.33 46.99 168.66 47.98 169 49 C169.66 49.33 170.32 49.66 171 50 C171.66 50.33 172.32 50.66 173 51 C173.33 51.99 173.66 52.98 174 54 C175.48035688 55.28726685 176.96488598 56.57151986 178.5 57.79296875 C180.11655494 59.0937903 181.57342089 60.4941665 183 62 C184.31995827 59.4616187 185.37022737 57.0071175 186.375 54.3125 C186.91125 53.219375 187.4475 52.12625 188 51 C190.1015625 50.29296875 190.1015625 50.29296875 192 50 C188.62461998 56.57965783 184.68713886 62.2911702 180 68 C179.53980469 68.59554687 179.07960938 69.19109375 178.60546875 69.8046875 C163.0826934 89.21934024 137.25464976 100.2851184 113 103 C83.00234809 104.75594522 56.69568685 97.49724121 33.8125 77.625 C13.48163616 58.61432212 0.78647046 34.91488266 -1.21875 6.94921875 C-1.25 4.5 -1.25 4.5 -1 1 C-0.67 0.67 -0.34 0.34 0 0 Z " fill="#2C80E5" transform="translate(210,310)"/>
<path d="M0 0 C3.87718752 0.24232422 5.54543842 1.45760645 8.25390625 4.015625 C13.67270677 8.1640659 19.28651898 7.74304281 25.88162231 7.6499939 C29.3570876 7.60774167 32.82995066 7.67506592 36.3046875 7.74609375 C36.98147049 7.75906998 37.65825348 7.7720462 38.35554504 7.78541565 C63.35452486 8.41482905 86.05226249 22.02739105 103.34765625 39.3515625 C108.91005315 45.41768321 113.44491439 52.16737158 118 59 C117.67 59.99 117.34 60.98 117 62 C116.67 61.01 116.34 60.02 116 59 C115.01 58.67 114.02 58.34 113 58 C112.28950541 56.35154022 111.62842417 54.68145927 111 53 C108.85643478 49.84969439 106.41870537 46.94259499 104 44 C103.10667969 42.88431641 103.10667969 42.88431641 102.1953125 41.74609375 C98.82630834 37.68082873 96.04143026 34.96738742 91 33 C91 32.34 91 31.68 91 31 C88.9895816 29.53997242 88.9895816 29.53997242 86.4375 28.125 C85.53128906 27.5990625 84.62507813 27.073125 83.69140625 26.53125 C82.80324219 26.0259375 81.91507812 25.520625 81 25 C80.26652344 24.5771875 79.53304687 24.154375 78.77734375 23.71875 C77.18891013 22.80548221 75.59509811 21.90157719 74 21 C73.67 21.66 73.34 22.32 73 23 C72.319375 22.236875 71.63875 21.47375 70.9375 20.6875 C66.29971894 16.44442371 60.88749057 14.9168574 55 13 C54.01 12.505 54.01 12.505 53 12 C52.67 12.66 52.34 13.32 52 14 C50.63875 13.2884375 50.63875 13.2884375 49.25 12.5625 C46.73572051 11.35371179 44.70431791 10.52006114 42 10 C41.67 10.99 41.34 11.98 41 13 C34.01057082 14.44608879 34.01057082 14.44608879 31.1328125 13.17578125 C29.5 12.0625 29.5 12.0625 27 10 C26.67 10.99 26.34 11.98 26 13 C25.505 12.01 25.505 12.01 25 11 C24.34 11 23.68 11 23 11 C23.12573443 17.49457855 23.12573443 17.49457855 26.5625 22.8125 C27.366875 23.534375 28.17125 24.25625 29 25 C29 26.32 29 27.64 29 29 C29.99 28.67 30.98 28.34 32 28 C36.10360825 47.93181148 36.60293657 66.56439974 30 86 C23.23525955 84.03299253 16.57404927 81.86172461 9.9375 79.5 C6.62705824 78.32739186 3.31490946 77.15992039 0 76 C-0.83128418 75.70738281 -1.66256836 75.41476562 -2.51904297 75.11328125 C-3.71424561 74.70142578 -3.71424561 74.70142578 -4.93359375 74.28125 C-5.64443115 74.03439453 -6.35526855 73.78753906 -7.08764648 73.53320312 C-9.15074651 72.86571196 -9.15074651 72.86571196 -12 73 C-11.38760911 77.37386833 -10.32179371 81.27961551 -8.8203125 85.4296875 C-8.38589844 86.63753906 -7.95148438 87.84539062 -7.50390625 89.08984375 C-7.04434701 90.35159025 -6.58471108 91.61330882 -6.125 92.875 C-5.45404297 94.73705078 -5.45404297 94.73705078 -4.76953125 96.63671875 C-2.95704114 101.65715597 -1.13703488 106.6669923 0.8203125 111.6328125 C2 115 2 115 2 119 C1.01 119 0.02 119 -1 119 C-1.495 120.485 -1.495 120.485 -2 122 C-2.99 122.33 -3.98 122.66 -5 123 C-5.99 123.99 -5.99 123.99 -7 125 C-16.9461777 127.13414674 -26.87972687 127.19276711 -37 127 C-36.01 120.07 -35.02 113.14 -34 106 C-33.34 106 -32.68 106 -32 106 C-32 104.02 -32 102.04 -32 100 C-31.34 100 -30.68 100 -30 100 C-30.0928125 98.453125 -30.0928125 98.453125 -30.1875 96.875 C-30.20265175 88.39001954 -27.68884191 79.97689766 -25 72 C-24.63079809 70.00630969 -24.28674418 68.00720923 -24 66 C-26.97 65.67 -29.94 65.34 -33 65 C-33 64.67 -33 64.34 -33 64 C-25.74 63.67 -18.48 63.34 -11 63 C-11.33 55.74 -11.66 48.48 -12 41 C-4.41 41 3.18 41 11 41 C11 33.74 11 26.48 11 19 C7.04 19 3.08 19 -1 19 C-1 18.34 -1 17.68 -1 17 C-1.66 17 -2.32 17 -3 17 C-3.495 16.01 -3.495 16.01 -4 15 C-6.31 15.33 -8.62 15.66 -11 16 C-7.85492941 13.90328627 -5.23174751 13.02282562 -1.625 11.9375 C-0.50351562 11.59589844 0.61796875 11.25429687 1.7734375 10.90234375 C4.50972389 10.13711111 7.20644008 9.5074444 10 9 C6.9734818 5.74067271 3.70373595 3.44109869 0 1 C0 0.67 0 0.34 0 0 Z " fill="#9E1BBF" transform="translate(284,200)"/>
<path d="M0 0 C0.495 1.485 0.495 1.485 1 3 C1.66 3 2.32 3 3 3 C3 3.66 3 4.32 3 5 C0.03 5 -2.94 5 -6 5 C-6 12.26 -6 19.52 -6 27 C-8.40059817 28.20029908 -9.89360649 28.11459743 -12.5703125 28.09765625 C-13.37742676 28.09515869 -14.18454102 28.09266113 -15.01611328 28.09008789 C-16.0420459 28.08098389 -17.06797852 28.07187988 -18.125 28.0625 C-23.013125 28.0315625 -23.013125 28.0315625 -28 28 C-28 35.26 -28 42.52 -28 50 C-25.03 50.33 -22.06 50.66 -19 51 C-19.30759178 52.97993541 -19.6212068 54.95893599 -19.9375 56.9375 C-20.11152344 58.03964844 -20.28554688 59.14179688 -20.46484375 60.27734375 C-21 63 -21 63 -22 64 C-22.144375 65.03125 -22.28875 66.0625 -22.4375 67.125 C-23 71 -23 71 -24 74.4375 C-25.09360924 78.33348292 -25.57704332 81.98191155 -26 86 C-26.66 86 -27.32 86 -28 86 C-28 87.98 -28 89.96 -28 92 C-28.66 92 -29.32 92 -30 92 C-30.04898438 92.94101562 -30.09796875 93.88203125 -30.1484375 94.8515625 C-30.22320312 96.09679687 -30.29796875 97.34203125 -30.375 98.625 C-30.44460937 99.85476563 -30.51421875 101.08453125 -30.5859375 102.3515625 C-30.9814487 105.83653855 -31.76261849 108.73049601 -33 112 C-45.51448712 112.8161622 -57.38611537 106.56837726 -67 99 C-67.33 98.34 -67.66 97.68 -68 97 C-68.99 97 -69.98 97 -71 97 C-71.33 96.01 -71.66 95.02 -72 94 C-71.34 94 -70.68 94 -70 94 C-70.0825 92.741875 -70.165 91.48375 -70.25 90.1875 C-70.16954641 71.22726991 -62.72690579 53.45987436 -52.1015625 38.0859375 C-50.01142473 35.13533535 -50.01142473 35.13533535 -48.5859375 32.3515625 C-47.20606078 29.93889462 -46.3252238 28.53772315 -44 27 C-39.25985075 26.350956 -34.75085472 26.53142255 -30 27 C-30.05800781 26.09636719 -30.11601562 25.19273437 -30.17578125 24.26171875 C-30.22089844 23.08222656 -30.26601562 21.90273437 -30.3125 20.6875 C-30.37050781 19.51574219 -30.42851562 18.34398437 -30.48828125 17.13671875 C-30 14 -30 14 -27.6953125 12.24609375 C-26.80585938 11.83488281 -25.91640625 11.42367187 -25 11 C-23.84512845 10.13696424 -22.69832205 9.26295681 -21.5625 8.375 C-18.44973044 6.10185907 -15.89776727 5.28520248 -12 5 C-12 4.34 -12 3.68 -12 3 C-8.04 2.01 -4.08 1.02 0 0 Z M-52 51 C-52 57.93 -52 64.86 -52 72 C-45.07 72 -38.14 72 -31 72 C-31 65.07 -31 58.14 -31 51 C-37.93 51 -44.86 51 -52 51 Z " fill="#7F22A8" transform="translate(280,214)"/>
<path d="M0 0 C27.3816788 0.02080959 50.59466596 10.56448598 70.49581909 29.31842041 C77.13016575 35.96380591 82.30482529 43.53192971 87.49581909 51.31842041 C87.16581909 52.30842041 86.83581909 53.29842041 86.49581909 54.31842041 C86.16581909 53.32842041 85.83581909 52.33842041 85.49581909 51.31842041 C84.01081909 50.82342041 84.01081909 50.82342041 82.49581909 50.31842041 C81.7853245 48.66996063 81.12424326 46.99987968 80.49581909 45.31842041 C78.35225387 42.1681148 75.91452446 39.2610154 73.49581909 36.31842041 C72.60249878 35.20273682 72.60249878 35.20273682 71.69113159 34.06451416 C68.32212743 29.99924914 65.53724936 27.28580783 60.49581909 25.31842041 C60.49581909 24.65842041 60.49581909 23.99842041 60.49581909 23.31842041 C58.48540069 21.85839283 58.48540069 21.85839283 55.93331909 20.44342041 C55.02710815 19.91748291 54.12089722 19.39154541 53.18722534 18.84967041 C52.29906128 18.34435791 51.41089722 17.83904541 50.49581909 17.31842041 C49.76234253 16.89560791 49.02886597 16.47279541 48.27316284 16.03717041 C46.68472922 15.12390262 45.09091721 14.2199976 43.49581909 13.31842041 C43.16581909 13.97842041 42.83581909 14.63842041 42.49581909 15.31842041 C41.81519409 14.55529541 41.13456909 13.79217041 40.43331909 13.00592041 C35.79553803 8.76284412 30.38330966 7.23527781 24.49581909 5.31842041 C23.83581909 4.98842041 23.17581909 4.65842041 22.49581909 4.31842041 C22.16581909 4.97842041 21.83581909 5.63842041 21.49581909 6.31842041 C20.13456909 5.60685791 20.13456909 5.60685791 18.74581909 4.88092041 C16.2315396 3.6721322 14.200137 2.83848155 11.49581909 2.31842041 C11.16581909 3.30842041 10.83581909 4.29842041 10.49581909 5.31842041 C3.50638992 6.76450921 3.50638992 6.76450921 0.62863159 5.49420166 C-1.00418091 4.38092041 -1.00418091 4.38092041 -3.50418091 2.31842041 C-3.83418091 3.30842041 -4.16418091 4.29842041 -4.50418091 5.31842041 C-4.83418091 4.65842041 -5.16418091 3.99842041 -5.50418091 3.31842041 C-6.16418091 3.31842041 -6.82418091 3.31842041 -7.50418091 3.31842041 C-7.37844647 9.81299896 -7.37844647 9.81299896 -3.94168091 15.13092041 C-2.73511841 16.21373291 -2.73511841 16.21373291 -1.50418091 17.31842041 C-1.50418091 18.63842041 -1.50418091 19.95842041 -1.50418091 21.31842041 C-0.51418091 20.98842041 0.47581909 20.65842041 1.49581909 20.31842041 C5.59942734 40.25023189 6.09875566 58.88282015 -0.50418091 78.31842041 C-9.6546637 75.75538592 -18.56424287 72.52310818 -27.50418091 69.31842041 C-26.51418091 68.82342041 -26.51418091 68.82342041 -25.50418091 68.31842041 C-24.88807441 66.06840777 -24.88807441 66.06840777 -24.50418091 63.44342041 C-23.931903 59.93821825 -23.52371907 58.34772765 -21.50418091 55.31842041 C-20.88351298 53.02170766 -20.88351298 53.02170766 -20.46902466 50.46685791 C-20.29951294 49.53357666 -20.13000122 48.60029541 -19.95535278 47.63873291 C-19.78584106 46.66677979 -19.61632935 45.69482666 -19.44168091 44.69342041 C-19.10006871 42.76312098 -18.75519412 40.83339508 -18.40652466 38.90435791 C-18.25691284 38.04890381 -18.10730103 37.19344971 -17.95315552 36.31207275 C-17.50418091 34.31842041 -17.50418091 34.31842041 -16.50418091 33.31842041 C-15.96062736 30.12561425 -15.53827105 26.9220244 -15.10183716 23.71295166 C-14.50418091 20.31842041 -14.50418091 20.31842041 -13.42605591 17.18170166 C-12.08814679 13.02624663 -12.49923286 9.5216555 -13.50418091 5.31842041 C-14.88936735 2.82034229 -14.88936735 2.82034229 -16.50418091 1.31842041 C-13.51458182 -1.67117868 -4.05510894 0.01197891 0 0 Z " fill="#C80CE0" transform="translate(314.5041809082031,207.68157958984375)"/>
<path d="M0 0 C0.65226562 0.0928125 1.30453125 0.185625 1.9765625 0.28125 C2.22661769 7.65787809 1.89775235 15.12045147 -0.0234375 22.28125 C-4.9479522 25.5642598 -10.20038077 24.39655805 -16.0234375 24.28125 C-16.0234375 31.21125 -16.0234375 38.14125 -16.0234375 45.28125 C-13.7134375 45.94125 -11.4034375 46.60125 -9.0234375 47.28125 C-8.71247263 52.41217031 -10.1712014 56.73758614 -11.7890625 61.56640625 C-13.80584569 67.80459346 -14.66283593 73.74068351 -15.0234375 80.28125 C-19.70756311 79.78060407 -22.54108525 78.61358905 -26.3359375 75.84375 C-27.19832031 75.22628906 -28.06070313 74.60882813 -28.94921875 73.97265625 C-31.0234375 72.28125 -31.0234375 72.28125 -32.0234375 70.28125 C-33.0134375 70.28125 -34.0034375 70.28125 -35.0234375 70.28125 C-35.3534375 69.29125 -35.6834375 68.30125 -36.0234375 67.28125 C-35.3634375 67.28125 -34.7034375 67.28125 -34.0234375 67.28125 C-34.1059375 66.023125 -34.1884375 64.765 -34.2734375 63.46875 C-34.19290364 44.4896039 -26.72859331 26.77831329 -16.140625 11.3671875 C-14.8565589 9.49557824 -13.61779008 7.59022249 -12.46875 5.6328125 C-9.0589092 0.14239087 -6.40753787 -0.52923617 0 0 Z " fill="#533088" transform="translate(244.0234375,240.71875)"/>
<path d="M0 0 C3.50698204 2.55569541 5.83194712 4.84063103 7.625 8.875 C8.38449297 14.10442554 8.44839178 19.05717842 5.9375 23.8125 C2.94081913 27.78107737 0.3677732 30.2940756 -4.375 31.875 C-10.17823017 32.61563842 -14.9782446 32.72951265 -19.875 29.25 C-23.76341806 25.82372999 -26.04401051 22.76879379 -26.6484375 17.484375 C-26.90197215 10.97048476 -25.7395713 6.71248556 -21.5 1.625 C-15.364897 -3.42743776 -6.87683982 -3.99756483 0 0 Z " fill="#A02FDE" transform="translate(216.375,361.125)"/>
<path d="M0 0 C6.12297484 0.38268593 10.8283963 4.8283963 15 9 C18.75275104 14.14663 19.42516153 17.23233054 18.4921875 23.515625 C17.79143689 27.05274712 16.91501207 30.51151648 16 34 C15.7525 35.7634375 15.7525 35.7634375 15.5 37.5625 C15 41 15 41 14.0625 44.23046875 C12.62788996 49.3201698 11.73386021 54.47393666 10.78125 59.671875 C10 63 10 63 8 66 C7.835 67.155 7.67 68.31 7.5 69.5 C7 73 7 73 5 76 C1.27091669 75.49800802 -2.36147686 74.95792977 -6 74 C-5.69128891 66.3248035 -5.31045161 60.01815742 -2 53 C-1.18353711 49.35578758 -0.56725684 45.69050628 0 42 C-2.31 42 -4.62 42 -7 42 C-7 41.67 -7 41.34 -7 41 C-1.06 41 4.88 41 11 41 C11 33.74 11 26.48 11 19 C7.04 19 3.08 19 -1 19 C-1 18.34 -1 17.68 -1 17 C-1.66 17 -2.32 17 -3 17 C-3.33 16.34 -3.66 15.68 -4 15 C-6.31 15.33 -8.62 15.66 -11 16 C-7.85492941 13.90328627 -5.23174751 13.02282562 -1.625 11.9375 C-0.50351562 11.59589844 0.61796875 11.25429687 1.7734375 10.90234375 C4.50972389 10.13711111 7.20644008 9.5074444 10 9 C6.9734818 5.74067271 3.70373595 3.44109869 0 1 C0 0.67 0 0.34 0 0 Z " fill="#B318D0" transform="translate(284,200)"/>
<path d="M0 0 C2.58340384 -0.02703562 5.16652308 -0.04685611 7.75 -0.0625 C8.47960937 -0.07087891 9.20921875 -0.07925781 9.9609375 -0.08789062 C13.48670558 -0.10391684 16.61034916 0.04707287 20 1 C20.19210853 5.61060472 19.73827689 9.29813614 18.56152344 13.796875 C17.99951619 16.00189822 17.50700188 18.21155609 17.03515625 20.4375 C16.87466797 21.18773437 16.71417969 21.93796875 16.54882812 22.7109375 C16.22477711 24.23618968 15.90445883 25.76223971 15.58789062 27.2890625 C14.79454244 30.9681752 13.89545578 34.41657527 12.4765625 37.90625 C10.61232715 42.64708692 9.98109873 47.47272215 9.3125 52.5 C9.18294922 53.4178125 9.05339844 54.335625 8.91992188 55.28125 C8.605121 57.51983403 8.29866447 59.75921618 8 62 C8.66 62 9.32 62 10 62 C10.33 61.34 10.66 60.68 11 60 C11.99 60.33 12.98 60.66 14 61 C14.33 59.35 14.66 57.7 15 56 C15.66 57.32 16.32 58.64 17 60 C18.24716797 59.566875 18.24716797 59.566875 19.51953125 59.125 C20.60621094 58.75375 21.69289063 58.3825 22.8125 58 C23.89144531 57.62875 24.97039062 57.2575 26.08203125 56.875 C29 56 29 56 32 56 C31.505 56.99 31.505 56.99 31 58 C30.01 58.33 29.02 58.66 28 59 C27.34 59.66 26.68 60.32 26 61 C16.0538223 63.13414674 6.12027313 63.19276711 -4 63 C-3.01 56.07 -2.02 49.14 -1 42 C-0.34 42 0.32 42 1 42 C1 40.02 1 38.04 1 36 C1.66 36 2.32 36 3 36 C2.9071875 34.453125 2.9071875 34.453125 2.8125 32.875 C2.79734825 24.39001954 5.31115809 15.97689766 8 8 C8.36920191 6.00630969 8.71325582 4.00720923 9 2 C6.03 1.67 3.06 1.34 0 1 C0 0.67 0 0.34 0 0 Z " fill="#8B20B2" transform="translate(251,264)"/>
<path d="M0 0 C0.33 1.32 0.66 2.64 1 4 C2.32 4.33 3.64 4.66 5 5 C5 5.66 5 6.32 5 7 C5.66 7.33 6.32 7.66 7 8 C12.27838733 23.83516199 9.1975667 42.7010754 4 58 C3.32453125 57.79503906 2.6490625 57.59007812 1.953125 57.37890625 C1.06109375 57.10949219 0.1690625 56.84007812 -0.75 56.5625 C-1.63171875 56.29566406 -2.5134375 56.02882813 -3.421875 55.75390625 C-5.60565835 55.11531506 -7.78835498 54.53224167 -10 54 C-9.24939467 22.24939467 -9.24939467 22.24939467 -4 17 C-3.855625 15.948125 -3.71125 14.89625 -3.5625 13.8125 C-3.04458004 10.30215362 -2.18395348 7.32986916 -1 4 C-0.65023242 2.67088318 -0.30903983 1.33917261 0 0 Z " fill="#D409E9" transform="translate(310,228)"/>
<path d="M0 0 C2.31465281 3.47197921 2.25699485 4.8562709 2.265625 8.953125 C2.26949219 10.71849609 2.26949219 10.71849609 2.2734375 12.51953125 C2.26570313 13.75058594 2.25796875 14.98164063 2.25 16.25 C2.25773437 17.46558594 2.26546875 18.68117188 2.2734375 19.93359375 C2.26013907 26.03092172 2.05710193 31.25244181 0 37 C-0.32843114 38.45482829 -0.64338879 39.91284715 -0.9375 41.375 C-3.60074013 53.60074013 -3.60074013 53.60074013 -7 57 C-11.875 54.25 -11.875 54.25 -13 52 C-13.99 52 -14.98 52 -16 52 C-16.495 50.515 -16.495 50.515 -17 49 C-16.34 49 -15.68 49 -15 49 C-15.03480469 48.44054687 -15.06960937 47.88109375 -15.10546875 47.3046875 C-15.4005975 38.56325506 -14.37666073 28.72575763 -10 21 C-9.34 21 -8.68 21 -8 21 C-7.9175 20.360625 -7.835 19.72125 -7.75 19.0625 C-6.70297711 14.78715651 -4.83436416 10.98804357 -3 7 C-1.98707847 4.67198287 -0.99410301 2.33614207 0 0 Z " fill="#45337E" transform="translate(225,259)"/>
<path d="M0 0 C4.29 0 8.58 0 13 0 C12.62729191 4.69612189 12.13510761 8.74376999 10.5625 13.1875 C8.87363661 18.08342608 8.03878231 22.94677381 7.3125 28.0625 C7.18294922 28.92810547 7.05339844 29.79371094 6.91992188 30.68554688 C6.60610144 32.78930608 6.30200786 34.89451257 6 37 C6.99 37.33 7.98 37.66 9 38 C3.7415998 37.32584613 -1.02638346 35.75734451 -6 34 C-6.82504615 21.8993231 -3.79468622 11.38405867 0 0 Z " fill="#71279E" transform="translate(235,288)"/>
<path d="M0 0 C3.52482355 0.61759729 4.07662514 1.0801081 6.75 3.875 C9.91920003 8.64351769 9.87929784 13.47182193 9 19 C7.31144831 23.87704026 4.26970576 27.1535295 0 30 C-4.60114246 31.53371415 -9.1950082 31.55386882 -14 31 C-16.6875 29 -16.6875 29 -18 27 C-16.625 25 -16.625 25 -15 23 C-14.34 23 -13.68 23 -13 23 C-12.5978125 21.7934375 -12.5978125 21.7934375 -12.1875 20.5625 C-11.5996875 19.2940625 -11.5996875 19.2940625 -11 18 C-10.01 17.67 -9.02 17.34 -8 17 C-7.42223828 15.14921284 -7.42223828 15.14921284 -7 13 C-5.87890625 10.859375 -5.87890625 10.859375 -4.5625 8.75 C-4.13066406 8.04359375 -3.69882813 7.3371875 -3.25390625 6.609375 C-2.84011719 6.07828125 -2.42632812 5.5471875 -2 5 C-1.34 5 -0.68 5 0 5 C0 3.35 0 1.7 0 0 Z " fill="#9125E1" transform="translate(215,362)"/>
<path d="M0 0 C0.99 0.33 1.98 0.66 3 1 C5.09173827 6.35876762 5.35061534 11.41751624 5.3125 17.125 C5.30839111 18.37253052 5.30839111 18.37253052 5.30419922 19.64526367 C5.14839206 28.92653521 2.97216438 37.25149877 0 46 C-2.97 45.01 -5.94 44.02 -9 43 C-9.62621031 36.11168659 -7.35806067 30.41097745 -5 24 C-4.34 24 -3.68 24 -3 24 C-2.94465088 23.41508789 -2.88930176 22.83017578 -2.83227539 22.22753906 C-2.57882735 19.56804892 -2.32071175 16.90903168 -2.0625 14.25 C-1.97548828 13.32960937 -1.88847656 12.40921875 -1.79882812 11.4609375 C-1.66831055 10.12675781 -1.66831055 10.12675781 -1.53515625 8.765625 C-1.456604 7.94868164 -1.37805176 7.13173828 -1.29711914 6.29003906 C-1.01670988 4.12879099 -0.57555495 2.09982687 0 0 Z " fill="#E205F3" transform="translate(314,240)"/>
<path d="M0 0 C0.33 0.99 0.66 1.98 1 3 C1.66 3 2.32 3 3 3 C3 3.66 3 4.32 3 5 C0.03 5 -2.94 5 -6 5 C-6 12.26 -6 19.52 -6 27 C-8.296537 28.1482685 -9.58313167 28.11561175 -12.1328125 28.09765625 C-12.93847656 28.09443359 -13.74414062 28.09121094 -14.57421875 28.08789062 C-15.41597656 28.07951172 -16.25773437 28.07113281 -17.125 28.0625 C-17.97449219 28.05798828 -18.82398438 28.05347656 -19.69921875 28.04882812 C-21.79950909 28.03702874 -23.8997633 28.01909306 -26 28 C-26 27.67 -26 27.34 -26 27 C-24.35 27 -22.7 27 -21 27 C-19.68 20.73 -18.36 14.46 -17 8 C-17.66 7.67 -18.32 7.34 -19 7 C-16.69 6.34 -14.38 5.68 -12 5 C-12 4.34 -12 3.68 -12 3 C-8.04 2.01 -4.08 1.02 0 0 Z " fill="#8820B0" transform="translate(280,214)"/>
<path d="M0 0 C1.32 0 2.64 0 4 0 C4.19210853 4.61060472 3.73827689 8.29813614 2.56152344 12.796875 C1.99951619 15.00189822 1.50700188 17.21155609 1.03515625 19.4375 C0.87466797 20.18773437 0.71417969 20.93796875 0.54882812 21.7109375 C0.22477711 23.23618968 -0.09554117 24.76223971 -0.41210938 26.2890625 C-1.20545756 29.9681752 -2.10454422 33.41657527 -3.5234375 36.90625 C-5.38767285 41.64708692 -6.01890127 46.47272215 -6.6875 51.5 C-6.81705078 52.4178125 -6.94660156 53.335625 -7.08007812 54.28125 C-7.394879 56.51983403 -7.70133553 58.75921618 -8 61 C-10.31 61 -12.62 61 -15 61 C-14.46274105 57.62294375 -13.88935377 54.303314 -13 51 C-12.34 51 -11.68 51 -11 51 C-10.93941406 50.36191406 -10.87882812 49.72382813 -10.81640625 49.06640625 C-10.73261719 48.24011719 -10.64882813 47.41382813 -10.5625 46.5625 C-10.48128906 45.73878906 -10.40007812 44.91507812 -10.31640625 44.06640625 C-10 42 -10 42 -9 41 C-8.72763056 39.63442938 -8.50956818 38.25791194 -8.31640625 36.87890625 C-8.19442871 36.02981689 -8.07245117 35.18072754 -7.94677734 34.3059082 C-7.81996582 33.4005835 -7.6931543 32.49525879 -7.5625 31.5625 C-4.6783985 11.6783985 -4.6783985 11.6783985 -3 10 C-2.63272554 8.50794753 -2.3050154 7.00601352 -2 5.5 C-1.11111111 1.11111111 -1.11111111 1.11111111 0 0 Z " fill="#941CB8" transform="translate(267,265)"/>
<path d="M0 0 C27.3816788 0.02080959 50.59466596 10.56448598 70.49581909 29.31842041 C77.13016575 35.96380591 82.30482529 43.53192971 87.49581909 51.31842041 C87.16581909 52.30842041 86.83581909 53.29842041 86.49581909 54.31842041 C86.16581909 53.32842041 85.83581909 52.33842041 85.49581909 51.31842041 C84.01081909 50.82342041 84.01081909 50.82342041 82.49581909 50.31842041 C81.7853245 48.66996063 81.12424326 46.99987968 80.49581909 45.31842041 C78.35225387 42.1681148 75.91452446 39.2610154 73.49581909 36.31842041 C72.60249878 35.20273682 72.60249878 35.20273682 71.69113159 34.06451416 C68.32212743 29.99924914 65.53724936 27.28580783 60.49581909 25.31842041 C60.49581909 24.65842041 60.49581909 23.99842041 60.49581909 23.31842041 C58.48540069 21.85839283 58.48540069 21.85839283 55.93331909 20.44342041 C55.02710815 19.91748291 54.12089722 19.39154541 53.18722534 18.84967041 C52.29906128 18.34435791 51.41089722 17.83904541 50.49581909 17.31842041 C49.76234253 16.89560791 49.02886597 16.47279541 48.27316284 16.03717041 C46.68472922 15.12390262 45.09091721 14.2199976 43.49581909 13.31842041 C43.16581909 13.97842041 42.83581909 14.63842041 42.49581909 15.31842041 C41.47488159 14.17373291 41.47488159 14.17373291 40.43331909 13.00592041 C35.79553803 8.76284412 30.38330966 7.23527781 24.49581909 5.31842041 C23.83581909 4.98842041 23.17581909 4.65842041 22.49581909 4.31842041 C22.16581909 4.97842041 21.83581909 5.63842041 21.49581909 6.31842041 C20.13456909 5.60685791 20.13456909 5.60685791 18.74581909 4.88092041 C16.2315396 3.6721322 14.200137 2.83848155 11.49581909 2.31842041 C11.16581909 3.30842041 10.83581909 4.29842041 10.49581909 5.31842041 C3.50638992 6.76450921 3.50638992 6.76450921 0.62863159 5.49420166 C-1.00418091 4.38092041 -1.00418091 4.38092041 -3.50418091 2.31842041 C-3.83418091 3.30842041 -4.16418091 4.29842041 -4.50418091 5.31842041 C-4.83418091 4.65842041 -5.16418091 3.99842041 -5.50418091 3.31842041 C-6.16418091 3.31842041 -6.82418091 3.31842041 -7.50418091 3.31842041 C-7.50418091 5.95842041 -7.50418091 8.59842041 -7.50418091 11.31842041 C-10.76426734 8.14889194 -13.72655968 4.91904052 -16.50418091 1.31842041 C-13.51458182 -1.67117868 -4.05510894 0.01197891 0 0 Z " fill="#D30EFE" transform="translate(314.5041809082031,207.68157958984375)"/>
<path d="M0 0 C1.28231347 3.84694041 0.55411417 6.05711087 -0.3125 10 C-0.57675781 11.2375 -0.84101563 12.475 -1.11328125 13.75 C-2 17 -2 17 -4 20 C-7.625 20.6875 -7.625 20.6875 -11 21 C-11 22.65 -11 24.3 -11 26 C-11.33 26 -11.66 26 -12 26 C-12.33 31.28 -12.66 36.56 -13 42 C-14.98 42 -16.96 42 -19 42 C-18.46589137 34.64748331 -17.86859084 27.32097997 -17 20 C-15.68 20 -14.36 20 -13 20 C-13.05800781 19.09636719 -13.11601562 18.19273437 -13.17578125 17.26171875 C-13.22089844 16.08222656 -13.26601562 14.90273437 -13.3125 13.6875 C-13.39951172 11.92986328 -13.39951172 11.92986328 -13.48828125 10.13671875 C-13 7 -13 7 -10.64453125 5.18359375 C-9.77183594 4.79300781 -8.89914063 4.40242187 -8 4 C-7.13375 3.46375 -6.2675 2.9275 -5.375 2.375 C-3 1 -3 1 0 0 Z " fill="#7326A0" transform="translate(263,221)"/>
<path d="M0 0 C2.63282221 1.3164111 2.71903159 2.3866328 3.7265625 5.11328125 C4.0359375 5.94923828 4.3453125 6.78519531 4.6640625 7.64648438 C4.98117187 8.52626953 5.29828125 9.40605469 5.625 10.3125 C5.94984375 11.18068359 6.2746875 12.04886719 6.609375 12.94335938 C8.06721105 16.93403242 9 19.68347582 9 24 C6.73117913 24.83919398 4.46022973 25.67151724 2.1875 26.5 C1.54490234 26.73847656 0.90230469 26.97695313 0.24023438 27.22265625 C-2.64933739 28.27068746 -4.90076061 29 -8 29 C-7.71342606 27.45737855 -7.42046123 25.91594394 -7.125 24.375 C-6.96257812 23.51648438 -6.80015625 22.65796875 -6.6328125 21.7734375 C-5.9456894 18.76197206 -5.00315501 15.92095135 -4 13 C-3.28543678 10.71026822 -2.57711606 8.41857914 -1.875 6.125 C-1.34519531 4.39636719 -1.34519531 4.39636719 -0.8046875 2.6328125 C-0.53914063 1.76398438 -0.27359375 0.89515625 0 0 Z " fill="#B914D6" transform="translate(277,295)"/>
<path d="M0 0 C3 1 3 1 4.75 4.1875 C7.34131805 9.81472499 4.52534865 16.14770883 3 21.8125 C2.82210938 22.49248047 2.64421875 23.17246094 2.4609375 23.87304688 C1.12421344 28.87578656 1.12421344 28.87578656 0 30 C-0.12375 31.11375 -0.2475 32.2275 -0.375 33.375 C-0.98311639 36.90207504 -1.21784407 37.94362388 -4 40 C-4.66 39.01 -5.32 38.02 -6 37 C-6.33 38.32 -6.66 39.64 -7 41 C-7.66 40.67 -8.32 40.34 -9 40 C-8.505 37.03 -8.505 37.03 -8 34 C-7.34 34 -6.68 34 -6 34 C-5.95101563 33.39414062 -5.90203125 32.78828125 -5.8515625 32.1640625 C-5.20534939 24.92201904 -4.28577474 17.7816904 -1.9375 10.875 C-0.75231484 7.24043218 -0.39314912 3.80044149 0 0 Z " fill="#A716C7" transform="translate(272,284)"/>
<path d="M0 0 C1.484375 1.02734375 1.484375 1.02734375 3 3 C3.24468664 5.61290377 3.32876177 7.96090038 3.25 10.5625 C3.24484375 11.24763672 3.2396875 11.93277344 3.234375 12.63867188 C3.15506269 17.68987462 3.15506269 17.68987462 2 20 C1.34 20 0.68 20 0 20 C-0.12375 21.03125 -0.2475 22.0625 -0.375 23.125 C-0.58173967 24.75020352 -0.79034452 26.37517005 -1 28 C-1.1340625 29.06476563 -1.268125 30.12953125 -1.40625 31.2265625 C-2.90436221 42.48737259 -5.62160481 53.16996718 -9 64 C-10.98 63.67 -12.96 63.34 -15 63 C-14.01 62.505 -14.01 62.505 -13 62 C-12.3838935 59.74998736 -12.3838935 59.74998736 -12 57.125 C-11.4277221 53.61979783 -11.01953816 52.02930724 -9 49 C-8.37933207 46.70328725 -8.37933207 46.70328725 -7.96484375 44.1484375 C-7.79533203 43.21515625 -7.62582031 42.281875 -7.45117188 41.3203125 C-7.28166016 40.34835938 -7.11214844 39.37640625 -6.9375 38.375 C-6.5958878 36.44470057 -6.25101321 34.51497467 -5.90234375 32.5859375 C-5.75273193 31.7304834 -5.60312012 30.8750293 -5.44897461 29.99365234 C-5 28 -5 28 -4 27 C-3.45644645 23.80719384 -3.03409014 20.60360399 -2.59765625 17.39453125 C-2 14 -2 14 -0.94140625 10.84765625 C-0.0686607 8.2076915 0.21968701 6.37092316 0.125 3.625 C0.08375 2.42875 0.0425 1.2325 0 0 Z " fill="#C00EDA" transform="translate(302,214)"/>
<path d="M0 0 C2 2 2 2 2.23046875 5.03515625 C2.2282449 6.37767873 2.21279979 7.72021409 2.1875 9.0625 C2.17887939 9.79404297 2.17025879 10.52558594 2.16137695 11.27929688 C2.12204855 13.85332792 2.061459 16.42640458 2 19 C1.98066406 20.02464355 1.96132812 21.04928711 1.94140625 22.10498047 C1.87433061 25.40401672 1.784172 28.70170712 1.6875 32 C1.65402466 33.57406616 1.65402466 33.57406616 1.61987305 35.17993164 C1.4199882 40.85386381 0.78096089 45.70268055 -1.27026367 51.01367188 C-2.69119198 54.88141116 -3.28234341 58.95408095 -4 63 C-4.12407227 63.69383789 -4.24814453 64.38767578 -4.37597656 65.10253906 C-5.2630239 70.06622946 -6.13555564 75.03232642 -7 80 C-7.66 80 -8.32 80 -9 80 C-8.4512838 68.60940861 -6.67293899 57.8106342 -3 47 C-2.67 45.68 -2.34 44.36 -2 43 C-8.27 43 -14.54 43 -21 43 C-20.67 42.34 -20.34 41.68 -20 41 C-13.73 41 -7.46 41 -1 41 C-1 34.07 -1 27.14 -1 20 C-3.64 20 -6.28 20 -9 20 C-8.34 19.34 -7.68 18.68 -7 18 C-4.69 18 -2.38 18 0 18 C0 12.06 0 6.12 0 0 Z " fill="#7933A4" transform="translate(250,245)"/>
<path d="M0 0 C3.3 0 6.6 0 10 0 C10.25005519 7.37662809 9.92118985 14.83920147 8 22 C4.36804504 24.42130331 2.61650652 24.21022785 -1.6875 24.125 C-2.86699219 24.10695313 -4.04648438 24.08890625 -5.26171875 24.0703125 C-6.16535156 24.04710937 -7.06898438 24.02390625 -8 24 C-8 23.34 -8 22.68 -8 22 C-4.535 21.505 -4.535 21.505 -1 21 C0.7637236 14.34443923 2.34034961 7.86036401 3 1 C2.01 0.67 1.02 0.34 0 0 Z " fill="#5B2E8D" transform="translate(236,241)"/>
<path d="M0 0 C1.98 0 3.96 0 6 0 C5.01 5.28 4.02 10.56 3 16 C2.34 16 1.68 16 1 16 C0.96261719 16.78503906 0.92523438 17.57007813 0.88671875 18.37890625 C0.49848655 24.58300901 -0.11154958 29.47426876 -3 35 C-3.99 34.67 -4.98 34.34 -6 34 C-6.81923445 21.98456133 -3.87703971 11.28183627 0 0 Z " fill="#652A95" transform="translate(235,288)"/>
<path d="M0 0 C-0.63421875 0.11214844 -1.2684375 0.22429687 -1.921875 0.33984375 C-2.60765625 0.55769531 -3.2934375 0.77554687 -4 1 C-5.29660434 3.49034386 -5.29660434 3.49034386 -6 6 C-6.66 6 -7.32 6 -8 6 C-8 6.66 -8 7.32 -8 8 C-8.99 8 -9.98 8 -11 8 C-11.33 9.65 -11.66 11.3 -12 13 C-12.66 13 -13.32 13 -14 13 C-14.061875 13.53625 -14.12375 14.0725 -14.1875 14.625 C-15.38027382 18.11156962 -17.56197166 20.24940393 -20 23 C-20.66 22.67 -21.32 22.34 -22 22 C-22.39585609 14.58136361 -22.05550906 9.66661088 -17.125 3.75 C-11.8134406 -0.62422539 -6.58487142 -0.23015085 0 0 Z " fill="#BF45D6" transform="translate(212,359)"/>
<path d="M0 0 C0.66 0 1.32 0 2 0 C2.0270043 1.45823212 2.04639787 2.91660675 2.0625 4.375 C2.07410156 5.18710937 2.08570313 5.99921875 2.09765625 6.8359375 C2 9 2 9 1 11 C0.34 11 -0.32 11 -1 11 C-1.66 14.96 -2.32 18.92 -3 23 C-3.66 23 -4.32 23 -5 23 C-5.02578125 23.76441406 -5.0515625 24.52882813 -5.078125 25.31640625 C-5.48752589 33.04850035 -6.88994257 40.01533506 -9.01171875 47.453125 C-10.26115294 51.93726035 -11.15528216 56.42444504 -12 61 C-8.04 61 -4.08 61 0 61 C0.33 60.34 0.66 59.68 1 59 C1.99 59.33 2.98 59.66 4 60 C4.33 58.35 4.66 56.7 5 55 C5.66 56.32 6.32 57.64 7 59 C8.24716797 58.566875 8.24716797 58.566875 9.51953125 58.125 C10.60621094 57.75375 11.69289063 57.3825 12.8125 57 C13.89144531 56.62875 14.97039062 56.2575 16.08203125 55.875 C19 55 19 55 22 55 C21.505 55.99 21.505 55.99 21 57 C20.01 57.33 19.02 57.66 18 58 C17.34 58.66 16.68 59.32 16 60 C6.0538223 62.13414674 -3.87972687 62.19276711 -14 62 C-13.01 55.07 -12.02 48.14 -11 41 C-10.34 41 -9.68 41 -9 41 C-9 39.02 -9 37.04 -9 35 C-8.34 35 -7.68 35 -7 35 C-7.0928125 33.453125 -7.0928125 33.453125 -7.1875 31.875 C-7.20260725 23.41493936 -4.73554291 14.94189878 -2 7 C-1.61482578 5.71133069 -1.23765253 4.4201876 -0.875 3.125 C-0.58625 2.09375 -0.2975 1.0625 0 0 Z " fill="#8620AE" transform="translate(261,265)"/>
<path d="M0 0 C2.475 0.99 2.475 0.99 5 2 C5.33 1.34 5.66 0.68 6 0 C6.33 1.65 6.66 3.3 7 5 C7.99 5.33 8.98 5.66 10 6 C11 8 11 8 12 10 C12.99 10.33 13.98 10.66 15 11 C15.33 11.99 15.66 12.98 16 14 C16.66 14.33 17.32 14.66 18 15 C18.66 15.33 19.32 15.66 20 16 C20.33 16.99 20.66 17.98 21 19 C22.48035688 20.28726685 23.96488598 21.57151986 25.5 22.79296875 C27.11655494 24.0937903 28.57342089 25.4941665 30 27 C31.31995827 24.4616187 32.37022737 22.0071175 33.375 19.3125 C33.91125 18.219375 34.4475 17.12625 35 16 C37.1015625 15.29296875 37.1015625 15.29296875 39 15 C35.62478981 21.57932677 31.68811213 27.29227604 27 33 C26.52820313 33.60714844 26.05640625 34.21429688 25.5703125 34.83984375 C21.47860821 39.93713639 16.56508784 44.5517528 11 48 C10.01 47.67 9.02 47.34 8 47 C9.19240351 44.61519297 10.32265791 43.95386324 12.5 42.4375 C15.88637083 39.93613352 19.00926755 37.27533192 22.0625 34.375 C22.83722656 33.64023437 23.61195313 32.90546875 24.41015625 32.1484375 C26.18884636 30.20798052 26.18884636 30.20798052 25.94726562 28.22973633 C24.52305149 24.87732714 22.01133187 22.66490701 19.43359375 20.17578125 C18.88010757 19.62891159 18.3266214 19.08204193 17.75636292 18.51860046 C15.99036812 16.77598808 14.21451338 15.04386886 12.4375 13.3125 C10.65870368 11.56870898 8.88204422 9.82281411 7.10792542 8.07426453 C6.00373106 6.98711676 4.89648024 5.90306346 3.78599548 4.82234192 C2.50542235 3.56689815 1.24986667 2.28601707 0 1 C0 0.67 0 0.34 0 0 Z " fill="#4B68E9" transform="translate(363,345)"/>
<path d="M0 0 C6.12297484 0.38268593 10.8283963 4.8283963 15 9 C14.01 9.495 14.01 9.495 13 10 C12.31270746 12.11846285 12.31270746 12.11846285 11.875 14.5625 C11.441875 16.7590625 11.441875 16.7590625 11 19 C7.04 19 3.08 19 -1 19 C-1 18.34 -1 17.68 -1 17 C-1.66 17 -2.32 17 -3 17 C-3.33 16.34 -3.66 15.68 -4 15 C-6.31 15.33 -8.62 15.66 -11 16 C-7.85492941 13.90328627 -5.23174751 13.02282562 -1.625 11.9375 C-0.50351562 11.59589844 0.61796875 11.25429687 1.7734375 10.90234375 C4.50972389 10.13711111 7.20644008 9.5074444 10 9 C6.9734818 5.74067271 3.70373595 3.44109869 0 1 C0 0.67 0 0.34 0 0 Z " fill="#A613C9" transform="translate(284,200)"/>
<path d="M0 0 C0.33 0 0.66 0 1 0 C1.4724049 7.25666421 1.45814998 12.09596354 -3 18 C-7.04145306 22.26597823 -10.36307241 22.61783542 -16 23 C-16 22.34 -16 21.68 -16 21 C-15.34 21 -14.68 21 -14 21 C-13.7215625 19.7625 -13.7215625 19.7625 -13.4375 18.5 C-11.0993511 12.80711571 -7.10594923 8.40396615 -2 5 C-0.79549696 2.44816596 -0.79549696 2.44816596 0 0 Z " fill="#700CE9" transform="translate(223,370)"/>
<path d="M0 0 C2.475 0.495 2.475 0.495 5 1 C4.01 2.98 3.02 4.96 2 7 C1.34 7 0.68 7 0 7 C-0.144375 7.61875 -0.28875 8.2375 -0.4375 8.875 C-1 11 -1 11 -2 13 C-2.66 13 -3.32 13 -4 13 C-4.2475 13.598125 -4.495 14.19625 -4.75 14.8125 C-6 17 -6 17 -7.9375 18.4375 C-10.18525116 19.93687346 -10.18525116 19.93687346 -11.5625 22.625 C-13 25 -13 25 -16 26 C-16.6796875 24.22265625 -16.6796875 24.22265625 -17 22 C-15.8203125 20.18359375 -15.8203125 20.18359375 -14.125 18.4375 C-11.93012209 16.14563911 -11.02939192 15.08817577 -10 12 C-9.34 12 -8.68 12 -8 12 C-7.67 10.35 -7.34 8.7 -7 7 C-6.01 7 -5.02 7 -4 7 C-4 6.34 -4 5.68 -4 5 C-3.34 5 -2.68 5 -2 5 C-1.34 3.35 -0.68 1.7 0 0 Z " fill="#AD38DA" transform="translate(208,360)"/>
<path d="M0 0 C-0.98756026 8.2903085 -2.58322448 15.36920134 -6 23 C-9.3 23 -12.6 23 -16 23 C-16 22.67 -16 22.34 -16 22 C-14.35 22 -12.7 22 -11 22 C-9.68 15.73 -8.36 9.46 -7 3 C-7.66 2.67 -8.32 2.34 -9 2 C-5.62902617 0.50178941 -3.79557881 0 0 0 Z " fill="#7D24A8" transform="translate(270,219)"/>
<path d="M0 0 C2.375 0.1875 2.375 0.1875 5 1 C5.69040574 2.65697379 6.3530635 4.3255761 7 6 C8.44574201 7.40978273 8.44574201 7.40978273 10.125 8.6875 C11.548125 9.8321875 11.548125 9.8321875 13 11 C13 11.66 13 12.32 13 13 C13.78375 13.268125 14.5675 13.53625 15.375 13.8125 C18 15 18 15 20 18 C20.99 18.33 21.98 18.66 23 19 C23.556875 19.598125 24.11375 20.19625 24.6875 20.8125 C28.47549657 24.39574 33.08647904 26.36215968 38 28 C38 28.66 38 29.32 38 30 C40.64 30 43.28 30 46 30 C46 30.66 46 31.32 46 32 C48.8815018 33.22245531 51.65855 34.17858983 54.6875 35 C58 36 58 36 60 38 C53.29334511 37.51904467 47.90372678 36.17091706 41.75 33.5 C40.92443604 33.14542725 40.09887207 32.79085449 39.24829102 32.42553711 C23.64036981 25.48008049 10.79021071 14.1359087 0 1 C0 0.67 0 0.34 0 0 Z " fill="#109DE1" transform="translate(230,372)"/>
<path d="M0 0 C0.66 0 1.32 0 2 0 C2.7317359 2.63424923 3.17779467 4.41327758 2.375 7.0625 C0.60253502 9.56006429 -1.58780124 11.13054596 -4 13 C-4.99 14.485 -4.99 14.485 -6 16 C-6.66 16 -7.32 16 -8 16 C-8.309375 16.94875 -8.61875 17.8975 -8.9375 18.875 C-10 22 -10 22 -11 24 C-11.66 24 -12.32 24 -13 24 C-13 24.66 -13 25.32 -13 26 C-14.98 26 -16.96 26 -19 26 C-19.33 25.01 -19.66 24.02 -20 23 C-19.236875 22.773125 -18.47375 22.54625 -17.6875 22.3125 C-14.3204669 20.668135 -13.83457681 19.24578974 -12 16 C-10.89590195 14.71096553 -9.76840698 13.44179775 -8.625 12.1875 C-5.60323994 8.83353798 -3.25608822 5.39647056 -1.04296875 1.46875 C-0.69878906 0.9840625 -0.35460937 0.499375 0 0 Z " fill="#851AE5" transform="translate(220,367)"/>
<path d="M0 0 C0.66 0.33 1.32 0.66 2 1 C3.763499 7.17887621 2.67526145 11.25314207 0 17 C-0.82065238 20.6434988 -1.43271262 24.30929501 -2 28 C-3.98 28.33 -5.96 28.66 -8 29 C-7.71342606 27.45737855 -7.42046123 25.91594394 -7.125 24.375 C-6.96257812 23.51648438 -6.80015625 22.65796875 -6.6328125 21.7734375 C-5.9456894 18.76197206 -5.00315501 15.92095135 -4 13 C-3.28543678 10.71026822 -2.57711606 8.41857914 -1.875 6.125 C-1.34519531 4.39636719 -1.34519531 4.39636719 -0.8046875 2.6328125 C-0.53914063 1.76398438 -0.27359375 0.89515625 0 0 Z " fill="#B014CE" transform="translate(277,295)"/>
<path d="M0 0 C0.66 0.33 1.32 0.66 2 1 C1.09409469 3.99645602 0.22053461 6.64522693 -1.4375 9.3125 C-3.59303452 13.02001938 -4.76707703 16.90747034 -6 21 C-6.52980469 22.59134766 -6.52980469 22.59134766 -7.0703125 24.21484375 C-8.15669415 28.63796902 -8.34217774 32.6536538 -8.3125 37.1875 C-8.31048584 38.02104004 -8.30847168 38.85458008 -8.30639648 39.71337891 C-8.1970399 46.48562938 -6.99426278 52.53156216 -5 59 C-4.64764458 60.66274909 -4.30852682 62.32856346 -4 64 C-9.97590003 58.99226254 -10.16079247 49.08654843 -10.875 41.8125 C-11.61052644 26.85679565 -7.886924 12.74747019 0 0 Z " fill="#C854D6" transform="translate(200,224)"/>
<path d="M0 0 C1.65 0.33 3.3 0.66 5 1 C5.33 2.65 5.66 4.3 6 6 C5.67 6 5.34 6 5 6 C4.67 11.28 4.34 16.56 4 22 C2.02 22 0.04 22 -2 22 C-1.46589137 14.64748331 -0.86859084 7.32097997 0 0 Z " fill="#682997" transform="translate(246,241)"/>
<path d="M0 0 C1.32 0.33 2.64 0.66 4 1 C4 1.99 4 2.98 4 4 C4.99 4 5.98 4 7 4 C7 4.66 7 5.32 7 6 C3.86501708 7.85776765 1.62528568 8.20140476 -2 8 C-2.33 8.66 -2.66 9.32 -3 10 C-5.43359375 10.8515625 -5.43359375 10.8515625 -8.4375 11.625 C-9.42621094 11.88539063 -10.41492188 12.14578125 -11.43359375 12.4140625 C-14 13 -14 13 -16 13 C-16.66 13.66 -17.32 14.32 -18 15 C-19.31747324 15.69748583 -20.64914193 16.36959957 -22 17 C-21.34 18.98 -20.68 20.96 -20 23 C-21.65 21.68 -23.3 20.36 -25 19 C-24.67 17.02 -24.34 15.04 -24 13 C-15.70386716 10.20143786 -7.41217604 7.43458271 1 5 C0.67 3.35 0.34 1.7 0 0 Z " fill="#7E50F1" transform="translate(364,303)"/>
<path d="M0 0 C1.54409546 0.0611499 1.54409546 0.0611499 3.11938477 0.12353516 C4.23506836 0.16736328 5.35075195 0.21119141 6.50024414 0.25634766 C7.67522461 0.30791016 8.85020508 0.35947266 10.06079102 0.41259766 C11.81746094 0.47833984 11.81746094 0.47833984 13.60961914 0.54541016 C22.36655525 0.90922978 22.36655525 0.90922978 24.62329102 2.03759766 C24.29329102 3.02759766 23.96329102 4.01759766 23.62329102 5.03759766 C16.63386184 6.48368645 16.63386184 6.48368645 13.75610352 5.21337891 C12.12329102 4.10009766 12.12329102 4.10009766 9.62329102 2.03759766 C9.29329102 3.02759766 8.96329102 4.01759766 8.62329102 5.03759766 C8.29329102 4.37759766 7.96329102 3.71759766 7.62329102 3.03759766 C6.96329102 3.03759766 6.30329102 3.03759766 5.62329102 3.03759766 C5.62329102 5.67759766 5.62329102 8.31759766 5.62329102 11.03759766 C2.36320459 7.86806918 -0.59908776 4.63821776 -3.37670898 1.03759766 C-2.37670898 0.03759766 -2.37670898 0.03759766 0 0 Z " fill="#CD05FD" transform="translate(301.376708984375,207.96240234375)"/>
<path d="M0 0 C1.01964844 -0.02900391 2.03929687 -0.05800781 3.08984375 -0.08789062 C4.06824219 -0.09626953 5.04664063 -0.10464844 6.0546875 -0.11328125 C6.95429199 -0.12786377 7.85389648 -0.14244629 8.78076172 -0.1574707 C11.125 0.3125 11.125 0.3125 12.96142578 2.16723633 C14.125 4.3125 14.125 4.3125 13.8125 7.0625 C13.585625 7.805 13.35875 8.5475 13.125 9.3125 C13.785 9.6425 14.445 9.9725 15.125 10.3125 C13.805 10.6425 12.485 10.9725 11.125 11.3125 C11.125 8.3425 11.125 5.3725 11.125 2.3125 C4.195 2.3125 -2.735 2.3125 -9.875 2.3125 C-9.875 9.2425 -9.875 16.1725 -9.875 23.3125 C-10.205 23.3125 -10.535 23.3125 -10.875 23.3125 C-11.07088601 19.6670658 -11.25530536 16.0211421 -11.4375 12.375 C-11.49357422 11.33408203 -11.54964844 10.29316406 -11.60742188 9.22070312 C-11.65576172 8.23134766 -11.70410156 7.24199219 -11.75390625 6.22265625 C-11.8010376 5.30621338 -11.84816895 4.38977051 -11.89672852 3.44555664 C-11.8421299 -1.91430999 -3.98672188 0.0375162 0 0 Z " fill="#8B12EA" transform="translate(238.875,216.6875)"/>
<path d="M0 0 C2.46800047 1.15173355 4.04783565 2.04783565 6 4 C6.01171875 6.34765625 6.01171875 6.34765625 5.6875 9.0625 C5.58824219 9.96097656 5.48898437 10.85945312 5.38671875 11.78515625 C5 14 5 14 4 15 C3.76924918 16.34747084 3.58846937 17.70377565 3.4375 19.0625 C3.293125 20.361875 3.14875 21.66125 3 23 C2.34 23 1.68 23 1 23 C0.67 19.04 0.34 15.08 0 11 C-0.33 11 -0.66 11 -1 11 C-1.08912219 7.16774573 -0.87867729 3.73437848 0 0 Z " fill="#B512D2" transform="translate(296,209)"/>
<path d="M0 0 C5.56105501 0.57386809 11.04054986 0.74672306 16.625 0.75 C17.79977905 0.75652588 17.79977905 0.75652588 18.99829102 0.76318359 C24.38005534 0.75075588 29.59746979 0.29583131 34.9375 -0.375 C35.4325 0.615 35.4325 0.615 35.9375 1.625 C28.06807218 3.52043208 20.37464012 3.84395445 12.3125 3.875 C11.34755615 3.88402344 10.3826123 3.89304687 9.38842773 3.90234375 C3.02067643 3.87629756 -2.8717057 3.10970838 -9.0625 1.625 C-5.64629348 -0.22103862 -3.87839808 -0.5022386 0 0 Z " fill="#0F9CE0" transform="translate(299.0625,409.375)"/>
<path d="M0 0 C-0.63421875 0.11214844 -1.2684375 0.22429687 -1.921875 0.33984375 C-2.60765625 0.55769531 -3.2934375 0.77554687 -4 1 C-5.29660434 3.49034386 -5.29660434 3.49034386 -6 6 C-6.66 6 -7.32 6 -8 6 C-8 6.66 -8 7.32 -8 8 C-8.99 8 -9.98 8 -11 8 C-11.33 9.65 -11.66 11.3 -12 13 C-12.66 13 -13.32 13 -14 13 C-14.061875 13.53625 -14.12375 14.0725 -14.1875 14.625 C-15.38027382 18.11156962 -17.56197166 20.24940393 -20 23 C-20.66 22.67 -21.32 22.34 -22 22 C-22 21.34 -22 20.68 -22 20 C-21.34 20 -20.68 20 -20 20 C-19.731875 19.195625 -19.46375 18.39125 -19.1875 17.5625 C-18.795625 16.716875 -18.40375 15.87125 -18 15 C-17.01 14.67 -16.02 14.34 -15 14 C-14.67 13.01 -14.34 12.02 -14 11 C-13.67 10.01 -13.34 9.02 -13 8 C-12.01 7.67 -11.02 7.34 -10 7 C-8.78130071 4.49552484 -8.78130071 4.49552484 -8 2 C-9.423125 2.5259375 -9.423125 2.5259375 -10.875 3.0625 C-14 4 -14 4 -16 3 C-10.62669111 -0.39366878 -6.13053511 -0.32712342 0 0 Z " fill="#B745D8" transform="translate(212,359)"/>
<path d="M0 0 C4.63008272 1.45761863 7.77054373 4.11304204 11.25 7.375 C11.81775146 7.90303223 12.38550293 8.43106445 12.97045898 8.97509766 C18.38814732 14.145658 22.7779513 19.80997377 27 26 C27.76183594 27.04414063 28.52367187 28.08828125 29.30859375 29.1640625 C29.86675781 30.09992188 30.42492187 31.03578125 31 32 C30.67 32.99 30.34 33.98 30 35 C29.67 34.01 29.34 33.02 29 32 C28.01 31.67 27.02 31.34 26 31 C25.28950541 29.35154022 24.62842417 27.68145927 24 26 C21.85643478 22.84969439 19.41870537 19.94259499 17 17 C16.40445312 16.25621094 15.80890625 15.51242188 15.1953125 14.74609375 C11.82630834 10.68082873 9.04143026 7.96738742 4 6 C4 5.34 4 4.68 4 4 C2.70766393 2.62689293 1.37562854 1.28965176 0 0 Z " fill="#CC14FD" transform="translate(371,227)"/>
<path d="M0 0 C0.33 0 0.66 0 1 0 C1.23929154 6.0369836 0.5050108 11.02954703 -1.1875 16.8125 C-1.41018555 17.59496094 -1.63287109 18.37742187 -1.86230469 19.18359375 C-3.68990899 25.39693574 -6.02804817 31.23898568 -9 37 C-9.33 37.66 -9.66 38.32 -10 39 C-10.66 38.67 -11.32 38.34 -12 38 C-11.625 35.5625 -11.625 35.5625 -11 33 C-10.01 32.505 -10.01 32.505 -9 32 C-8.42145148 30.04722151 -8.42145148 30.04722151 -8.0625 27.75 C-7.48721845 24.83706643 -7.08671443 23.13180594 -5.4375 20.625 C-3.46528954 17.02357219 -3.49432989 13.67914706 -3.30859375 9.62109375 C-2.99214809 6.93330843 -2.30932193 5.33701613 -1 3 C-0.67 2.01 -0.34 1.02 0 0 Z " fill="#6F49F0" transform="translate(413,320)"/>
<path d="M0 0 C2.625 -0.4375 2.625 -0.4375 6 0 C8.33122122 2.0949488 10.17328621 4.46073827 12 7 C8.86248779 7 7.60242414 6.64820195 5 5 C4.67 4.01 4.34 3.02 4 2 C3.01 2 2.02 2 1 2 C1.33 2.99 1.66 3.98 2 5 C1.01 5.99 0.02 6.98 -1 8 C-0.01 8.33 0.98 8.66 2 9 C1.56042969 9.36738281 1.12085938 9.73476563 0.66796875 10.11328125 C-1.5186295 12.58664648 -2.46981229 15.12682549 -3.6875 18.1875 C-4.12449219 19.27417969 -4.56148438 20.36085938 -5.01171875 21.48046875 C-5.33785156 22.31191406 -5.66398437 23.14335937 -6 24 C-7.06840878 20.77113226 -6.92989222 18.93660536 -5.8203125 15.7421875 C-5.55089844 14.95199219 -5.28148437 14.16179687 -5.00390625 13.34765625 C-4.71386719 12.53167969 -4.42382812 11.71570313 -4.125 10.875 C-3.70154297 9.63943359 -3.70154297 9.63943359 -3.26953125 8.37890625 C-1.21552579 2.43105159 -1.21552579 2.43105159 0 0 Z " fill="#526FEA" transform="translate(316,340)"/>
<path d="M0 0 C3.04662882 2.56417147 4.20951098 5.40969231 5.6875 9.0625 C6.34298828 10.65771484 6.34298828 10.65771484 7.01171875 12.28515625 C8 15 8 15 8 17 C3.545 16.01 3.545 16.01 -1 15 C-1.02693575 12.87506859 -1.04636628 10.75004088 -1.0625 8.625 C-1.07410156 7.44164062 -1.08570313 6.25828125 -1.09765625 5.0390625 C-1 2 -1 2 0 0 Z " fill="#AA21F9" transform="translate(402,262)"/>
<path d="M0 0 C1.27931907 3.71002531 0.82213771 6.78474235 0.25 10.625 C0.01023438 12.34589844 0.01023438 12.34589844 -0.234375 14.1015625 C-1 17 -1 17 -4 19 C-7.13671875 19.1953125 -7.13671875 19.1953125 -10.6875 19.125 C-11.86699219 19.10695313 -13.04648438 19.08890625 -14.26171875 19.0703125 C-15.16535156 19.04710937 -16.06898438 19.02390625 -17 19 C-17 18.34 -17 17.68 -17 17 C-12.71 17 -8.42 17 -4 17 C-3.8453125 15.02 -3.8453125 15.02 -3.6875 13 C-3.17694872 8.26238447 -1.83363235 4.384773 0 0 Z " fill="#623492" transform="translate(245,246)"/>
<path d="M0 0 C0.33 0.99 0.66 1.98 1 3 C-4.26229533 9.35003236 -9.88921321 15.6804812 -17 20 C-17.99 19.67 -18.98 19.34 -20 19 C-18.82056453 16.64112907 -17.78433446 16.04759329 -15.625 14.5625 C-9.82605478 10.33454176 -4.97625406 5.14090952 0 0 Z " fill="#698FEB" transform="translate(391,373)"/>
<path d="M0 0 C0.99 0.33 1.98 0.66 3 1 C2.835 2.0725 2.67 3.145 2.5 4.25 C1.91189085 8.03028752 1.91189085 8.03028752 2 12 C2.66 12.33 3.32 12.66 4 13 C4 16.63 4 20.26 4 24 C3.34 24 2.68 24 2 24 C0.14782968 16.2495492 -1.54187056 8.99259075 -1 1 C-0.67 0.67 -0.34 0.34 0 0 Z " fill="#556EE6" transform="translate(210,310)"/>
<path d="M0 0 C1.57156655 3.1431331 0.11705576 5.365464 -0.9375 8.625 C-1.31777344 9.81351563 -1.69804687 11.00203125 -2.08984375 12.2265625 C-2.39019531 13.14179688 -2.69054687 14.05703125 -3 15 C-3.99 15 -4.98 15 -6 15 C-6 10.71 -6 6.42 -6 2 C-4.02 1.34 -2.04 0.68 0 0 Z " fill="#682598" transform="translate(256,226)"/>
<path d="M0 0 C0.04254356 1.99954746 0.04080783 4.00041636 0 6 C-1 7 -1 7 -3.5625 7.0625 C-4.7690625 7.0315625 -4.7690625 7.0315625 -6 7 C-6 6.34 -6 5.68 -6 5 C-6.66 5 -7.32 5 -8 5 C-8.33 4.34 -8.66 3.68 -9 3 C-11.31 3.33 -13.62 3.66 -16 4 C-10.4459427 0.29729514 -6.54495663 -0.22186294 0 0 Z " fill="#9817C1" transform="translate(289,212)"/>
<path d="M0 0 C0 0.99 0 1.98 0 3 C-1.98 3.99 -1.98 3.99 -4 5 C-4 5.66 -4 6.32 -4 7 C-4.66 7 -5.32 7 -6 7 C-6.66 10.63 -7.32 14.26 -8 18 C-10.31 18.33 -12.62 18.66 -15 19 C-15 18.34 -15 17.68 -15 17 C-14.34 17 -13.68 17 -13 17 C-12.7215625 15.7625 -12.7215625 15.7625 -12.4375 14.5 C-9.91512889 8.35857469 -5.36887663 3.81970738 0 0 Z " fill="#7A13E7" transform="translate(222,374)"/>
<path d="M0 0 C14.5919703 -0.45737339 27.97741989 -0.32057489 42 4 C41.01 4.66 40.02 5.32 39 6 C36.3125 5.125 36.3125 5.125 34 4 C33.67 4.66 33.34 5.32 33 6 C32.13375 5.525625 31.2675 5.05125 30.375 4.5625 C23.93888738 1.58281823 17.10550317 1.72598963 10.125 1.4375 C9.15046875 1.39431641 8.1759375 1.35113281 7.171875 1.30664062 C4.78137198 1.20117726 2.39077556 1.09905825 0 1 C0 0.67 0 0.34 0 0 Z " fill="#D621FD" transform="translate(303,208)"/>
<path d="M0 0 C0.66 1.32 1.32 2.64 2 4 C3.24716797 3.566875 3.24716797 3.566875 4.51953125 3.125 C5.60621094 2.75375 6.69289063 2.3825 7.8125 2 C8.89144531 1.62875 9.97039062 1.2575 11.08203125 0.875 C14 0 14 0 17 0 C16.67 0.66 16.34 1.32 16 2 C15.01 2.33 14.02 2.66 13 3 C12.34 3.66 11.68 4.32 11 5 C1.08490053 7.1274783 -8.90749222 7.25768105 -19 7 C-19 6.67 -19 6.34 -19 6 C-14.38 6 -9.76 6 -5 6 C-4.67 5.34 -4.34 4.68 -4 4 C-3.01 4.33 -2.02 4.66 -1 5 C-0.67 3.35 -0.34 1.7 0 0 Z " fill="#7C3CD7" transform="translate(266,320)"/>
<path d="M0 0 C1.485 0.99 1.485 0.99 3 2 C2.34 2 1.68 2 1 2 C1 2.99 1 3.98 1 5 C2.32 5.66 3.64 6.32 5 7 C4.01 8.485 4.01 8.485 3 10 C3.66 10.33 4.32 10.66 5 11 C4.34 12.98 3.68 14.96 3 17 C2.01 17 1.02 17 0 17 C-0.33 17.99 -0.66 18.98 -1 20 C-0.67 13.4 -0.34 6.8 0 0 Z " fill="#A326F6" transform="translate(319,251)"/>
<path d="M0 0 C0.66 0.33 1.32 0.66 2 1 C1.09409469 3.99645602 0.22053461 6.64522693 -1.4375 9.3125 C-3.22597768 12.38868161 -4.21409193 15.42672905 -5.25390625 18.81640625 C-5.99882372 20.99655737 -6.92493354 22.96521756 -8 25 C-10.18585734 18.44242799 -5.72949897 11.21591025 -2.8125 5.375 C-1.88293729 3.57920245 -0.94824014 1.78600569 0 0 Z " fill="#B644DA" transform="translate(200,224)"/>
<path d="M0 0 C1.98 0 3.96 0 6 0 C2.37857117 3.14865744 -1.62133157 4.56853221 -6.0625 6.1875 C-6.78244141 6.46013672 -7.50238281 6.73277344 -8.24414062 7.01367188 C-11.28658902 8.1408185 -13.72988458 9 -17 9 C-16.4375 7.0625 -16.4375 7.0625 -15 5 C-11.875 4.375 -11.875 4.375 -8 4 C-5.31129022 3.40407305 -2.66409767 2.70107833 0 2 C0 1.34 0 0.68 0 0 Z " fill="#2095E4" transform="translate(354,401)"/>
<path d="M0 0 C0.99 0 1.98 0 3 0 C2.67 1.32 2.34 2.64 2 4 C1.34 4 0.68 4 0 4 C-0.28875 4.886875 -0.5775 5.77375 -0.875 6.6875 C-1.83148748 9.50382424 -2.86798946 12.25083156 -4 15 C-4.33 15 -4.66 15 -5 15 C-5.31549831 9.74169479 -4.73345236 6.52070968 -2 2 C-1.34 1.34 -0.68 0.68 0 0 Z " fill="#C650D5" transform="translate(195,363)"/>
<path d="M0 0 C2.87796405 3.37591091 4.21870249 6.83620164 5.6875 11 C6.12449219 12.216875 6.56148438 13.43375 7.01171875 14.6875 C8 18 8 18 8 22 C7.01 21.67 6.02 21.34 5 21 C5 20.01 5 19.02 5 18 C4.34587636 16.66046856 3.67721216 15.32800825 3 14 C2.4172912 12.15831945 1.87745515 10.30267442 1.375 8.4375 C1.11460937 7.48746094 0.85421875 6.53742188 0.5859375 5.55859375 C0 3 0 3 0 0 Z " fill="#5E63EB" transform="translate(286,319)"/>
<path d="M0 0 C3 0 3 0 4.53515625 1.53125 C5.29119141 2.50578125 5.29119141 2.50578125 6.0625 3.5 C7.52943459 5.43479972 7.52943459 5.43479972 9 7 C9.66 7 10.32 7 11 7 C11.474375 7.804375 11.94875 8.60875 12.4375 9.4375 C13.79983672 12.2918076 13.79983672 12.2918076 17 13 C16.67 13.99 16.34 14.98 16 16 C10.35573231 11.31645873 4.9941954 6.3792354 0 1 C0 0.67 0 0.34 0 0 Z " fill="#5C57EB" transform="translate(347,329)"/>
<path d="M0 0 C5.00792862 4.86881949 9.45263714 9.95634476 13 16 C12.67 16.99 12.34 17.98 12 19 C11.67 18.01 11.34 17.02 11 16 C10.01 15.67 9.02 15.34 8 15 C7.731875 14.319375 7.46375 13.63875 7.1875 12.9375 C5.74193151 9.36162006 3.6374503 6.7664749 1.2421875 3.76953125 C0 2 0 2 0 0 Z " fill="#BE1CFB" transform="translate(389,243)"/>
<path d="M0 0 C0.66 0 1.32 0 2 0 C1.35956665 6.24422521 -1.22878091 11.45756182 -4 17 C-4.66 16.67 -5.32 16.34 -6 16 C-5.625 13.5625 -5.625 13.5625 -5 11 C-4.34 10.67 -3.68 10.34 -3 10 C-2.349461 7.91388442 -2.349461 7.91388442 -1.9375 5.5 C-1.09393346 1.09393346 -1.09393346 1.09393346 0 0 Z " fill="#5E5BEC" transform="translate(407,342)"/>
<path d="M0 0 C1.98 0.99 1.98 0.99 4 2 C4 3.32 4 4.64 4 6 C4.99 5.67 5.98 5.34 7 5 C7.33 6.65 7.66 8.3 8 10 C5 10 5 10 2 9 C1.26953125 6.93359375 1.26953125 6.93359375 0.8125 4.4375 C0.65394531 3.61121094 0.49539063 2.78492188 0.33203125 1.93359375 C0.16767578 0.97646484 0.16767578 0.97646484 0 0 Z " fill="#C30FF4" transform="translate(309,223)"/>
<path d="M0 0 C6.42527261 -0.48492623 6.42527261 -0.48492623 9 1.6875 C10.2406034 4.55639535 9.89942821 6.05641676 9 9 C9.66 9.33 10.32 9.66 11 10 C9.68 10.33 8.36 10.66 7 11 C7 8.03 7 5.06 7 2 C4.69 2 2.38 2 0 2 C0 1.34 0 0.68 0 0 Z " fill="#8A1ADE" transform="translate(243,217)"/>
<path d="M0 0 C2.13893584 2.13893584 2.70116923 3.47909268 3.7265625 6.28125 C4.0359375 7.12300781 4.3453125 7.96476562 4.6640625 8.83203125 C4.98117187 9.71246094 5.29828125 10.59289062 5.625 11.5 C5.94984375 12.38042969 6.2746875 13.26085937 6.609375 14.16796875 C9 20.72712054 9 20.72712054 9 23 C8.34 23 7.68 23 7 23 C6.01170583 20.48241883 5.0342774 17.96145276 4.0625 15.4375 C3.78470703 14.73302734 3.50691406 14.02855469 3.22070312 13.30273438 C1.5134125 8.83909502 0.49374434 4.75619544 0 0 Z " fill="#4775E9" transform="translate(294,341)"/>
<path d="M0 0 C2.475 0.99 2.475 0.99 5 2 C5.33 1.34 5.66 0.68 6 0 C6.33 1.65 6.66 3.3 7 5 C7.99 5.33 8.98 5.66 10 6 C11.1875 9.0625 11.1875 9.0625 12 12 C7.47384007 8.32167983 3.60575001 4.58913637 0 0 Z " fill="#525FEB" transform="translate(363,345)"/>
<path d="M0 0 C1.81495662 0.44850658 3.62693134 0.90909571 5.4375 1.375 C6.95150391 1.75785156 6.95150391 1.75785156 8.49609375 2.1484375 C11 3 11 3 12 5 C12.99 4.67 13.98 4.34 15 4 C15.99 5.485 15.99 5.485 17 7 C10.58008874 6.42934122 4.98410537 4.32655091 -1 2 C-0.67 1.34 -0.34 0.68 0 0 Z " fill="#833EF3" transform="translate(347,296)"/>
<path d="M0 0 C0 0.99 0 1.98 0 3 C-0.66 3.66 -1.32 4.32 -2 5 C-1.34 6.98 -0.68 8.96 0 11 C-1.65 9.68 -3.3 8.36 -5 7 C-4.625 4.0625 -4.625 4.0625 -4 1 C-2 0 -2 0 0 0 Z " fill="#644BEF" transform="translate(344,315)"/>
<path d="M0 0 C0.99 0.33 1.98 0.66 3 1 C3 4.63 3 8.26 3 12 C2.34 12 1.68 12 1 12 C0.83126522 10.56274129 0.66509263 9.12518162 0.5 7.6875 C0.4071875 6.88699219 0.314375 6.08648437 0.21875 5.26171875 C0 3 0 3 0 0 Z " fill="#4272E8" transform="translate(211,322)"/>
<path d="M0 0 C3.65316671 1.24976756 4.78065836 1.67098753 7 5 C7.99 5.33 8.98 5.66 10 6 C11.1875 8.0625 11.1875 8.0625 12 10 C7.15853891 8.53289058 3.44051028 5.6487256 0 2 C0 1.34 0 0.68 0 0 Z " fill="#1A9DE1" transform="translate(243,385)"/>
<path d="M0 0 C-0.33 0.66 -0.66 1.32 -1 2 C-3.33247761 2.33926947 -5.66585471 2.67240066 -8 3 C-8.66 3.66 -9.32 4.32 -10 5 C-10.66 4.67 -11.32 4.34 -12 4 C-12 3.34 -12 2.68 -12 2 C-10.75579353 1.4654744 -9.50429064 0.94791389 -8.25 0.4375 C-7.55390625 0.14746094 -6.8578125 -0.14257812 -6.140625 -0.44140625 C-3.69987216 -1.07831803 -2.3596345 -0.80248831 0 0 Z " fill="#7550F1" transform="translate(356,313)"/>
<path d="M0 0 C0.33 0.99 0.66 1.98 1 3 C1.66 3 2.32 3 3 3 C3 3.66 3 4.32 3 5 C0.36 5 -2.28 5 -5 5 C-5 4.01 -5 3.02 -5 2 C-3.35 1.34 -1.7 0.68 0 0 Z " fill="#8E19B4" transform="translate(280,214)"/>
<path d="M0 0 C6.12297484 0.38268593 10.8283963 4.8283963 15 9 C13.35 9.33 11.7 9.66 10 10 C9.75507813 9.39542969 9.51015625 8.79085937 9.2578125 8.16796875 C7.77192954 5.6068972 6.42835766 4.7630634 3.875 3.3125 C2.57085804 2.56296645 1.27521703 1.79775205 0 1 C0 0.67 0 0.34 0 0 Z " fill="#7810EB" transform="translate(284,200)"/>
<path d="M0 0 C0.66 0.66 1.32 1.32 2 2 C0.90716423 3.03295436 -0.19970579 4.05107835 -1.3125 5.0625 C-1.92738281 5.63097656 -2.54226563 6.19945312 -3.17578125 6.78515625 C-3.77777344 7.18605469 -4.37976563 7.58695312 -5 8 C-5.99 7.67 -6.98 7.34 -8 7 C-6.80873219 4.61746439 -5.61305574 3.87811124 -3.4375 2.375 C-2.79683594 1.92898438 -2.15617187 1.48296875 -1.49609375 1.0234375 C-1.00238281 0.68570312 -0.50867188 0.34796875 0 0 Z " fill="#5C9AE9" transform="translate(379,385)"/>
<path d="M0 0 C3.92734211 3.77024843 7.44406161 7.88470051 11 12 C10.01 12.33 9.02 12.66 8 13 C6.66094733 11.2126038 5.32890934 9.41995047 4 7.625 C3.2575 6.62726563 2.515 5.62953125 1.75 4.6015625 C0 2 0 2 0 0 Z " fill="#C24DCD" transform="translate(199,295)"/>
<path d="M0 0 C0.99 0.33 1.98 0.66 3 1 C2.25 8.75 2.25 8.75 0 11 C0 7.37 0 3.74 0 0 Z " fill="#3C3676" transform="translate(211,297)"/>
<path d="M0 0 C4.1424367 1.38081223 5.32203099 3.59825558 8 7 C4.83119306 7 3.56310828 6.7941758 1 5 C0.25 2.375 0.25 2.375 0 0 Z " fill="#495EED" transform="translate(320,340)"/>
<path d="M0 0 C0.66 0.66 1.32 1.32 2 2 C1.57044137 4.87985784 0.47704949 7.53813177 -0.5625 10.25 C-0.83191406 10.95640625 -1.10132813 11.6628125 -1.37890625 12.390625 C-1.68634766 13.18726563 -1.68634766 13.18726563 -2 14 C-3.25127906 10.45332822 -2.72285053 8.27746562 -1.5625 4.75 C-1.27503906 3.85796875 -0.98757813 2.9659375 -0.69140625 2.046875 C-0.46324219 1.37140625 -0.23507812 0.6959375 0 0 Z " fill="#4978EB" transform="translate(312,350)"/>
<path d="M0 0 C0.33 0 0.66 0 1 0 C1 1.98 1 3.96 1 6 C1.99 6 2.98 6 4 6 C4.33 6.99 4.66 7.98 5 9 C1.62496331 7.8141763 -0.64722731 6.72426311 -3 4 C-2.34 4 -1.68 4 -1 4 C-0.67 2.68 -0.34 1.36 0 0 Z " fill="#54399A" transform="translate(222,312)"/>
<path d="M0 0 C0.33 0.66 0.66 1.32 1 2 C1.66 2 2.32 2 3 2 C3.33 3.65 3.66 5.3 4 7 C4.66 7 5.32 7 6 7 C6 7.66 6 8.32 6 9 C2.83884224 7.63016497 2.0072908 7.0109362 0 4 C0 2.68 0 1.36 0 0 Z " fill="#2187E4" transform="translate(225,362)"/>
<path d="M0 0 C1.32 0.33 2.64 0.66 4 1 C4 1.99 4 2.98 4 4 C4.99 4 5.98 4 7 4 C7 4.66 7 5.32 7 6 C5.35 6.66 3.7 7.32 2 8 C1.855625 7.05125 1.71125 6.1025 1.5625 5.125 C1.17064601 2.1065506 1.17064601 2.1065506 0 0 Z " fill="#7D40F3" transform="translate(364,303)"/>
<path d="M0 0 C0.99 0.66 1.98 1.32 3 2 C3 2.99 3 3.98 3 5 C0.69 4.34 -1.62 3.68 -4 3 C-2 1 -2 1 0 0 Z " fill="#843AF2" transform="translate(331,288)"/>
<path d="M0 0 C0.66 0 1.32 0 2 0 C1.25 2.4375 1.25 2.4375 0 5 C-2.125 5.8125 -2.125 5.8125 -4 6 C-2.84826645 3.53199953 -1.95216435 1.95216435 0 0 Z " fill="#6F9BEC" transform="translate(384,380)"/>
<path d="M0 0 C2.86697492 1.28519565 4.97607712 2.57129254 7 5 C7 5.66 7 6.32 7 7 C5.02 6.34 3.04 5.68 1 5 C0.67 3.35 0.34 1.7 0 0 Z " fill="#4469EC" transform="translate(336,356)"/>
<path d="M0 0 C0.33 0 0.66 0 1 0 C1.33 3.96 1.66 7.92 2 12 C1.01 12.33 0.02 12.66 -1 13 C-1.33 12.01 -1.66 11.02 -2 10 C-1.34 10 -0.68 10 0 10 C0 6.7 0 3.4 0 0 Z " fill="#554198" transform="translate(210,298)"/>
<path d="M0 0 C0.99 0 1.98 0 3 0 C4.76462683 3.08809695 5 4.23312136 5 8 C4.01 7.67 3.02 7.34 2 7 C2 6.01 2 5.02 2 4 C1.05021103 1.84971696 1.05021103 1.84971696 0 0 Z " fill="#526AEB" transform="translate(289,333)"/>
</svg>
